<svg xmlns="http://www.w3.org/2000/svg" width="16" height="16" viewBox="0 0 16 16" fill="none">
  <g clip-path="url(#clip0_605_548)">
    <path fill-rule="evenodd" clip-rule="evenodd" d="M16 8C16 3.58187 12.4181 0 8 0C3.58187 0 0 3.58187 0 8C0 12.4181 3.58187 16 8 16C12.4181 16 16 12.4181 16 8ZM13.5383 8.05437C13.5158 8.5275 13.2518 8.84219 13.1396 8.95531L13.1393 8.955L11.6102 10.4841C11.648 10.3491 11.6705 10.1981 11.6664 10.0322C11.6524 9.46531 11.3393 9.09031 11.2049 8.955C10.8664 8.61687 10.5283 8.27875 10.1902 7.94062L10.188 7.93839C9.83246 7.58288 9.47695 7.22738 9.12145 6.87219C8.86488 6.61562 8.72363 6.27219 8.72363 5.905C8.72363 5.53781 8.86488 5.19437 9.12145 4.93781C9.38801 4.67125 9.73832 4.53781 10.0886 4.53781C10.4389 4.53781 10.7893 4.67125 11.0558 4.93781L13.1389 7.02031C13.2393 7.1225 13.5652 7.49937 13.5383 8.05437ZM9.12242 9.10469L10.0896 8.1375L11.0568 9.10469C11.3134 9.36125 11.4546 9.70469 11.4546 10.0719C11.4546 10.4391 11.3134 10.7825 11.0568 11.0391C10.8002 11.2956 10.4568 11.4369 10.0896 11.4369C9.72242 11.4369 9.37898 11.2956 9.12242 11.0391C8.86586 10.7825 8.72461 10.4391 8.72461 10.0719C8.72461 9.70469 8.86586 9.36125 9.12242 9.10469ZM5.92879 7.83969L4.9616 6.8725C4.42816 6.33937 4.42816 5.47156 4.9616 4.93812C5.22816 4.67156 5.57848 4.53812 5.92879 4.53812C6.2791 4.53812 6.62941 4.67156 6.89598 4.93812C7.15254 5.19469 7.29379 5.53812 7.29379 5.90531C7.29379 6.2725 7.15254 6.61594 6.89598 6.8725L5.92879 7.83969ZM2.4796 7.9225C2.5021 7.44906 2.76616 7.13469 2.87835 7.02156H2.87803L4.4071 5.4925C4.36928 5.6275 4.34678 5.77844 4.35085 5.94438C4.36491 6.51094 4.67803 6.88625 4.81241 7.02156C5.15991 7.36875 5.5071 7.71594 5.85428 8.06313L5.85666 8.0655L5.85745 8.06629L5.85904 8.06788C6.20464 8.41348 6.55024 8.75909 6.89616 9.10469C7.15272 9.36125 7.29397 9.70469 7.29397 10.0719C7.29397 10.4391 7.15272 10.7825 6.89616 11.0391C6.6396 11.2956 6.29616 11.4369 5.92897 11.4369C5.56178 11.4369 5.21835 11.2956 4.96178 11.0391L2.87897 8.95688C2.77866 8.85438 2.45272 8.47719 2.4796 7.9225Z" fill="#F6F6F6"/>
  </g>
  <defs>
    <clipPath id="clip0_605_548">
      <rect width="16" height="16" fill="white"/>
    </clipPath>
  </defs>
</svg>