<svg width="190" height="34" viewBox="0 0 190 34" fill="none"
    xmlns="http://www.w3.org/2000/svg">
    <g clip-path="url(#clip0_1220_2221)">
        <path d="M17 0C26.3885 0 34 7.61148 34 17C34 26.3885 26.3885 34 17 34C7.61148 34 0 26.3885 0 17C0 7.61148 7.61148 0 17 0Z" fill="#665DC0"/>
        <path d="M10.5433 14.6041L12.5986 16.6594L14.6538 14.6041C15.199 14.0589 15.4992 13.3291 15.4992 12.5488C15.4992 11.7686 15.199 11.0388 14.6538 10.4936C14.0874 9.92711 13.343 9.64355 12.5986 9.64355C11.8541 9.64355 11.1097 9.92711 10.5433 10.4936C9.40973 11.6271 9.40973 13.4712 10.5433 14.6041Z" fill="#C2BEE6"/>
        <path d="M6.11667 14.9209C5.87827 15.1613 5.31714 15.8293 5.26933 16.8354C5.21222 18.0141 5.90483 18.8156 6.118 19.0334L10.544 23.4581C11.0892 24.0033 11.819 24.3034 12.5992 24.3034C13.3795 24.3034 14.1093 24.0033 14.6545 23.4581C15.1997 22.9129 15.4999 22.1831 15.4999 21.4028C15.4999 20.6225 15.1997 19.8927 14.6545 19.3475C13.9161 18.6098 13.1783 17.872 12.4405 17.1342C11.7028 16.3964 10.965 15.6587 10.2266 14.9209C9.94101 14.6334 9.27561 13.8358 9.24573 12.6319C9.2371 12.2792 9.28491 11.9585 9.36526 11.6716L6.116 14.9209H6.11667Z" fill="#F0EFF9"/>
        <path d="M21.4399 17.2922L19.3847 19.3475C18.8395 19.8927 18.5393 20.6225 18.5393 21.4028C18.5393 22.1831 18.8395 22.9129 19.3847 23.4581C19.9299 24.0033 20.6597 24.3034 21.4399 24.3034C22.2202 24.3034 22.95 24.0033 23.4952 23.4581C24.0404 22.9129 24.3406 22.1831 24.3406 21.4028C24.3406 20.6225 24.0404 19.8927 23.4952 19.3475L21.4399 17.2922Z" fill="#C2BEE6"/>
        <path d="M27.9218 19.03C28.1602 18.7896 28.7214 18.1209 28.7692 17.1155C28.8263 15.9361 28.1337 15.1353 27.9205 14.9181L23.4939 10.4928C22.9274 9.92638 22.183 9.64282 21.4386 9.64282C20.6942 9.64282 19.9498 9.92638 19.3833 10.4928C18.8381 11.038 18.538 11.7678 18.538 12.5481C18.538 13.3284 18.8381 14.0582 19.3833 14.6034C20.1403 15.3597 20.8974 16.1168 21.6544 16.8738C22.3729 17.5923 23.0914 18.3108 23.8106 19.0293C24.0962 19.3169 24.7616 20.1138 24.7914 21.3184C24.8001 21.671 24.7523 21.9917 24.6719 22.2786L27.9212 19.0293L27.9218 19.03Z" fill="#F0EFF9"/>
    </g>
    <path d="M44.2612 13.0127C44.7688 12.4898 45.3655 12.0731 46.0335 11.7743C46.6925 11.4812 47.405 11.3318 48.1561 11.3318C48.9962 11.3318 49.6671 11.4353 50.1539 11.6364C50.6586 11.8461 51.1573 12.1565 51.6353 12.5558C51.6442 12.5616 51.6501 12.5673 51.659 12.5731C52.0361 12.8575 52.4398 12.9811 52.8613 12.9524C53.268 12.9208 53.6213 12.7713 53.9122 12.5127C54.2269 12.2312 54.3931 11.8605 54.3931 11.4381C54.3931 11.2686 54.3783 11.1221 54.3456 10.987C54.3071 10.8261 54.2328 10.6709 54.126 10.5215C54.025 10.3807 53.8914 10.2486 53.749 10.1451C52.9029 9.47278 52.042 8.98144 51.19 8.68261C50.338 8.38666 49.3168 8.23438 48.1561 8.23438C46.9092 8.23438 45.7366 8.46711 44.6679 8.92397C43.6051 9.38083 42.6611 10.0187 41.8626 10.8204C41.064 11.622 40.4346 12.5673 39.9864 13.6305C39.5381 14.6936 39.3125 15.8573 39.3125 17.0842C39.3125 18.3111 39.5381 19.4978 39.9864 20.5667C40.4317 21.6355 41.064 22.5866 41.8626 23.3883C42.6611 24.1928 43.6111 24.8278 44.6828 25.276C45.7574 25.7271 46.927 25.9541 48.1561 25.9541C49.1891 25.9541 50.1866 25.7904 51.1247 25.4657C52.0598 25.1439 52.9474 24.6583 53.7638 24.029C53.7816 24.0146 53.7994 24.0003 53.8143 23.9859C53.9835 23.8221 54.1111 23.6382 54.1972 23.44C54.2833 23.2388 54.3278 23.0291 54.3278 22.8136C54.3278 22.3596 54.1853 21.9832 53.9063 21.7016C53.6361 21.4315 53.2888 21.2706 52.897 21.239C52.5051 21.2074 52.1132 21.3223 51.7362 21.5867C51.1841 21.9832 50.6022 22.2935 50.0055 22.5148C49.4296 22.7303 48.8062 22.8395 48.1561 22.8395C47.402 22.8395 46.6866 22.6929 46.0275 22.4027C45.3626 22.1125 44.7659 21.6987 44.2582 21.1787C43.7506 20.6557 43.3469 20.038 43.0619 19.3455C42.7769 18.6502 42.6344 17.8916 42.6344 17.0842C42.6344 16.2768 42.7799 15.5384 43.0619 14.843C43.3469 14.1477 43.7506 13.5356 44.2612 13.0127Z" fill="#29254D"/>
    <path d="M66.2776 13.6052C65.2898 13.0438 64.1509 12.7585 62.8881 12.7585C61.6253 12.7585 60.4653 13.0438 59.4774 13.6052C58.4866 14.1697 57.6981 14.9563 57.1301 15.9471C56.5652 16.9349 56.2782 18.0848 56.2782 19.3668C56.2782 20.6489 56.5652 21.7778 57.1301 22.7656C57.6981 23.7564 58.4866 24.546 59.4774 25.1074C60.4653 25.6689 61.6132 25.9541 62.8881 25.9541C64.1629 25.9541 65.3109 25.6689 66.2988 25.1074C67.2896 24.543 68.0751 23.7533 68.637 22.7626C69.1928 21.7748 69.4738 20.6339 69.4738 19.3668C69.4738 18.0998 69.1868 16.9349 68.6219 15.9471C68.0539 14.9563 67.2655 14.1667 66.2746 13.6052H66.2776ZM62.8881 22.8106C62.2386 22.8106 61.6858 22.6695 61.1994 22.3782C60.707 22.084 60.3324 21.6937 60.0484 21.1773C59.7644 20.6639 59.6224 20.0544 59.6224 19.3698C59.6224 18.6853 59.7674 18.0698 60.0514 17.5474C60.3354 17.028 60.71 16.6316 61.2024 16.3404C61.6918 16.0492 62.2446 15.9081 62.8911 15.9081C63.5376 15.9081 64.0935 16.0492 64.5798 16.3404C65.0692 16.6316 65.4408 17.025 65.7157 17.5444C65.9936 18.0668 66.1356 18.6823 66.1356 19.3698C66.1356 20.0574 65.9936 20.6699 65.7187 21.1833C65.4408 21.6967 65.0692 22.087 64.5798 22.3782C64.0904 22.6695 63.5376 22.8106 62.8881 22.8106Z" fill="#29254D"/>
    <path d="M82.8442 8.23438C82.3728 8.23438 81.9528 8.39246 81.6295 8.69398C81.3032 9.00136 81.1309 9.41413 81.1309 9.89423V14.221C80.8348 14.0073 80.5145 13.8199 80.1731 13.6589C79.3663 13.2754 78.4809 13.0822 77.5351 13.0822C76.3658 13.0822 75.2991 13.372 74.3624 13.9429C73.4348 14.5079 72.6945 15.2836 72.1596 16.2497C71.6278 17.2099 71.3589 18.3077 71.3589 19.5079C71.3589 20.7082 71.652 21.8235 72.2352 22.7954C72.8153 23.7644 73.613 24.5431 74.6072 25.1052C75.6043 25.6672 76.7344 25.9541 77.9672 25.9541C79.2001 25.9541 80.3302 25.6672 81.3183 25.1052C82.3033 24.5431 83.098 23.7673 83.6782 22.7984C84.2583 21.8265 84.5545 20.7199 84.5545 19.5109V9.89423C84.5545 9.41999 84.3883 9.00722 84.071 8.69984C83.7567 8.39538 83.3307 8.23438 82.8382 8.23438H82.8442ZM77.9703 22.8833C77.3508 22.8833 76.81 22.7427 76.3144 22.4529C75.8158 22.1602 75.4321 21.7679 75.139 21.2497C74.8489 20.7345 74.7008 20.149 74.7008 19.5079C74.7008 18.8668 74.8459 18.2696 75.136 17.769C75.426 17.2655 75.8128 16.8762 76.3144 16.5834C76.81 16.2936 77.3508 16.1502 77.9703 16.1502C78.5897 16.1502 79.1457 16.2907 79.6352 16.5805C80.1277 16.8732 80.5054 17.2597 80.7925 17.7632C81.0765 18.2638 81.2185 18.8493 81.2185 19.505C81.2185 20.1607 81.0735 20.7374 80.7895 21.2527C80.5054 21.7679 80.1277 22.1602 79.6352 22.4529C79.1487 22.7427 78.6048 22.8833 77.9703 22.8833Z" fill="#29254D"/>
    <path d="M96.696 13.593C95.7386 13.0377 94.593 12.7585 93.2814 12.7585C91.9698 12.7585 90.7731 13.0437 89.7424 13.608C88.7116 14.1724 87.8915 14.9618 87.3107 15.9554C86.7331 16.9429 86.4395 18.0896 86.4395 19.3683C86.4395 20.6471 86.7522 21.7847 87.365 22.7723C87.9809 23.7629 88.8425 24.5523 89.9307 25.1136C91.0093 25.6719 92.2539 25.9541 93.6261 25.9541C94.3983 25.9541 95.2121 25.819 96.045 25.5549C96.8843 25.2877 97.6023 24.9365 98.1703 24.5133C98.716 24.1231 98.8086 23.6548 98.7894 23.3336C98.7639 22.9104 98.5533 22.5291 98.1512 22.196C97.8321 21.9438 97.4363 21.8117 97.0183 21.8267C96.6194 21.8388 96.2492 21.9588 95.9078 22.196C95.6525 22.3761 95.3046 22.5382 94.8706 22.6822C94.443 22.8233 94.025 22.8954 93.6261 22.8954C92.8698 22.8954 92.1932 22.7393 91.6188 22.4331C91.038 22.1239 90.5976 21.7157 90.2689 21.1844C90.1796 21.0373 90.103 20.8872 90.036 20.7251H97.9406C98.4097 20.7251 98.8245 20.575 99.1404 20.2869C99.4628 19.9927 99.6351 19.6085 99.6351 19.1732C99.6351 17.9485 99.3862 16.8469 98.8915 15.8953C98.3873 14.9228 97.647 14.1513 96.6864 13.593H96.696ZM93.2814 15.8173C93.926 15.8173 94.4494 15.9464 94.8834 16.2165C95.3238 16.4897 95.6557 16.8529 95.8982 17.3272C95.9748 17.4742 96.0386 17.6303 96.0929 17.7954H90.0679C90.1094 17.6934 90.1541 17.5943 90.2019 17.5013C90.4732 16.976 90.8561 16.5737 91.3763 16.2706C91.8933 15.9704 92.5315 15.8203 93.2814 15.8203V15.8173Z" fill="#29254D"/>
    <path d="M114.009 10.7288C113.178 9.93458 112.189 9.31097 111.066 8.88151C109.947 8.45205 108.695 8.23438 107.34 8.23438H103.3C102.816 8.23438 102.379 8.3991 102.044 8.70796C101.7 9.0227 101.52 9.44334 101.52 9.92575V24.2628C101.52 24.7275 101.7 25.1423 102.038 25.4629C102.376 25.7835 102.813 25.9541 103.303 25.9541H107.343C108.698 25.9541 109.95 25.7365 111.07 25.307C112.192 24.8775 113.181 24.2539 114.012 23.4597C114.843 22.6655 115.488 21.7125 115.934 20.6329C116.378 19.5593 116.601 18.365 116.601 17.0825C116.601 15.8 116.378 14.6087 115.931 13.5409C115.485 12.4702 114.84 11.523 114.009 10.7258V10.7288ZM113.125 17.0825C113.125 18.2062 112.874 19.2092 112.375 20.0711C111.879 20.9271 111.194 21.6066 110.335 22.0949C109.476 22.5802 108.468 22.8273 107.337 22.8273H105.076V11.3583H107.337C108.468 11.3583 109.479 11.6024 110.338 12.0819C111.197 12.5614 111.882 13.235 112.375 14.0821C112.871 14.9352 113.125 15.9441 113.125 17.0795V17.0825Z" fill="#29254D"/>
    <path d="M128.742 13.593C127.785 13.0377 126.639 12.7585 125.328 12.7585C124.016 12.7585 122.82 13.0437 121.789 13.608C120.758 14.1724 119.938 14.9618 119.357 15.9554C118.779 16.9429 118.486 18.0896 118.486 19.3683C118.486 20.6471 118.799 21.7847 119.411 22.7723C120.027 23.7629 120.889 24.5523 121.977 25.1136C123.056 25.6719 124.3 25.9541 125.672 25.9541C126.445 25.9541 127.258 25.819 128.091 25.5549C128.931 25.2877 129.649 24.9365 130.217 24.5133C130.762 24.1231 130.855 23.6548 130.836 23.3336C130.81 22.9104 130.6 22.5291 130.198 22.196C129.878 21.9438 129.483 21.8117 129.065 21.8267C128.666 21.8388 128.296 21.9588 127.954 22.196C127.699 22.3761 127.351 22.5382 126.917 22.6822C126.489 22.8233 126.071 22.8954 125.672 22.8954C124.916 22.8954 124.24 22.7393 123.665 22.4331C123.084 22.1239 122.644 21.7157 122.315 21.1844C122.226 21.0373 122.149 20.8872 122.082 20.7251H129.987C130.456 20.7251 130.871 20.575 131.187 20.2869C131.509 19.9927 131.681 19.6085 131.681 19.1732C131.681 17.9485 131.433 16.8469 130.938 15.8953C130.434 14.9228 129.693 14.1513 128.733 13.593H128.742ZM125.328 15.8173C125.972 15.8173 126.496 15.9464 126.93 16.2165C127.37 16.4897 127.702 16.8529 127.945 17.3272C128.021 17.4742 128.085 17.6303 128.139 17.7954H122.114C122.156 17.6934 122.197 17.5943 122.248 17.5013C122.52 16.976 122.903 16.5737 123.423 16.2706C123.94 15.9704 124.578 15.8203 125.328 15.8203V15.8173Z" fill="#29254D"/>
    <path d="M142.268 18.5956C141.594 18.2324 140.717 17.9473 139.589 17.7163C138.862 17.5662 138.313 17.4132 137.952 17.2631C137.557 17.098 137.45 16.966 137.424 16.927C137.353 16.8159 137.317 16.6989 137.317 16.5549C137.317 16.4318 137.341 16.2908 137.636 16.1437C137.985 15.9697 138.431 15.8796 138.96 15.8796C139.435 15.8796 139.858 15.9366 140.209 16.0477C140.531 16.1497 140.838 16.3418 141.128 16.6269C141.423 16.909 141.789 17.089 142.212 17.1671C142.675 17.2541 143.106 17.1671 143.482 16.906C143.848 16.6269 144.055 16.2518 144.078 15.8226C144.093 15.5375 144.034 15.1084 143.671 14.6882C143.183 14.079 142.525 13.5988 141.715 13.2567C140.924 12.9266 140.011 12.7585 139.001 12.7585C138.215 12.7585 137.447 12.8906 136.721 13.1487C135.962 13.4188 135.33 13.8389 134.839 14.3941C134.317 14.9883 134.051 15.7356 134.051 16.6209C134.051 17.6322 134.444 18.4965 135.22 19.1898C135.953 19.844 137.061 20.3122 138.62 20.6273C139.878 20.8553 140.422 21.1164 140.658 21.2965C140.995 21.5516 141.033 21.7647 141.027 21.9177C141.021 22.0708 140.974 22.2748 140.634 22.4879C140.301 22.701 139.772 22.809 139.066 22.809C138.499 22.809 137.982 22.707 137.527 22.5029C136.963 22.2508 136.697 22.0288 136.561 21.8757C136.266 21.5546 135.909 21.3655 135.492 21.3115C135.052 21.2545 134.621 21.3955 134.219 21.7226C133.853 22.0077 133.631 22.3979 133.578 22.851C133.522 23.3252 133.667 23.7634 134.012 24.1355C134.541 24.6727 135.274 25.1138 136.195 25.4529C137.099 25.7861 138.091 25.9541 139.149 25.9541C140.206 25.9541 141.169 25.777 141.916 25.4229C142.687 25.0598 143.284 24.5586 143.691 23.9344C144.102 23.3042 144.311 22.5899 144.311 21.8097C144.311 21.1224 144.146 20.5042 143.818 19.97C143.493 19.4419 142.971 18.9827 142.265 18.6016L142.268 18.5956Z" fill="#29254D"/>
    <path d="M148.082 8.23438C147.576 8.23438 147.115 8.42707 146.752 8.79012C146.384 9.15876 146.197 9.6056 146.197 10.1195C146.197 10.6333 146.389 11.0857 146.752 11.4488C147.115 11.8118 147.576 12.0045 148.082 12.0045C148.587 12.0045 149.048 11.8118 149.411 11.4488C149.774 11.0857 149.967 10.6249 149.967 10.1195C149.967 9.61397 149.78 9.15876 149.411 8.79012C149.048 8.42707 148.587 8.23438 148.082 8.23438Z" fill="#29254D"/>
    <path d="M148.082 13.324C147.56 13.324 147.098 13.4812 146.745 13.7811C146.386 14.0868 146.197 14.4973 146.197 14.9748V24.3032C146.197 24.7632 146.383 25.1708 146.739 25.4794C147.094 25.791 147.556 25.954 148.082 25.954C148.607 25.954 149.099 25.7881 149.445 25.4736C149.787 25.165 149.967 24.7603 149.967 24.3032V14.9748C149.967 14.5031 149.784 14.0926 149.438 13.7869C149.092 13.4841 148.624 13.324 148.082 13.324Z" fill="#29254D"/>
    <path d="M162.209 13.6051C161.186 13.0437 160.006 12.7585 158.698 12.7585C157.39 12.7585 156.189 13.0437 155.165 13.6051C154.139 14.1695 153.322 14.9561 152.734 15.9467C152.149 16.9344 151.852 18.0842 151.852 19.3661C151.852 20.648 152.127 21.7647 152.668 22.7494C153.216 23.7431 153.976 24.5326 154.931 25.097C155.891 25.6644 157.005 25.9556 158.244 25.9556C159.402 25.9556 160.444 25.6644 161.342 25.088C161.58 24.9349 161.805 24.7638 162.018 24.5807C161.952 25.118 161.812 25.5864 161.589 25.9826C161.283 26.532 160.889 26.9343 160.378 27.2135C159.862 27.4957 159.308 27.6338 158.695 27.6338C158.01 27.6338 157.393 27.5137 156.861 27.2795C156.329 27.0424 155.904 26.7241 155.566 26.3189C155.291 25.9676 154.928 25.7455 154.48 25.6584C154.023 25.5683 153.57 25.6584 153.157 25.9256C152.781 26.1718 152.54 26.52 152.456 26.9313C152.396 27.2285 152.403 27.6848 152.794 28.1771C153.498 29.0267 154.374 29.6812 155.391 30.1225C156.398 30.5608 157.493 30.7799 158.645 30.7799C159.987 30.7799 161.192 30.4737 162.225 29.8703C163.254 29.2699 164.071 28.4473 164.646 27.4296C165.219 26.4149 165.51 25.2771 165.51 24.0403V19.3721C165.51 18.0902 165.213 16.9404 164.628 15.9527C164.039 14.9621 163.223 14.1725 162.196 13.6111L162.209 13.6051ZM160.45 22.3771C159.944 22.6683 159.371 22.8094 158.701 22.8094C158.032 22.8094 157.456 22.6683 156.952 22.3771C156.442 22.0829 156.054 21.6927 155.76 21.1763C155.466 20.663 155.319 20.0536 155.319 19.3691C155.319 18.6846 155.469 18.0692 155.763 17.5468C156.057 17.0275 156.445 16.6312 156.955 16.34C157.462 16.0488 158.035 15.9077 158.704 15.9077C159.374 15.9077 159.95 16.0488 160.454 16.34C160.96 16.6312 161.345 17.0245 161.63 17.5438C161.918 18.0662 162.065 18.6816 162.065 19.3691C162.065 20.0566 161.918 20.669 161.633 21.1823C161.345 21.6957 160.96 22.0859 160.454 22.3771H160.45Z" fill="#29254D"/>
    <path d="M178.82 15.5838C178.322 14.6621 177.629 13.9513 176.76 13.4694C175.905 12.9965 174.93 12.7585 173.86 12.7585C172.791 12.7585 171.886 12.9965 171.052 13.4603C170.91 13.5387 170.775 13.623 170.642 13.7164C170.572 13.5808 170.48 13.4573 170.374 13.3459C170.068 13.0326 169.652 12.867 169.172 12.867C168.691 12.867 168.3 13.0296 167.987 13.3399C167.669 13.6531 167.498 14.0808 167.498 14.5748V24.2463C167.498 24.7222 167.663 25.1439 167.978 25.4632C168.291 25.7854 168.703 25.9541 169.169 25.9541C169.634 25.9541 170.071 25.7824 170.377 25.4541C170.681 25.1348 170.84 24.7162 170.84 24.2433V18.1289C170.84 17.7163 170.943 17.3669 171.158 17.0537C171.385 16.7223 171.688 16.4633 172.086 16.2585C172.481 16.0567 172.935 15.9543 173.436 15.9543C173.993 15.9543 174.485 16.0597 174.903 16.2705C175.304 16.4723 175.614 16.7735 175.855 17.1952C176.097 17.6199 176.221 18.1952 176.221 18.909V24.2433C176.221 24.7192 176.386 25.1409 176.701 25.4601C177.013 25.7824 177.426 25.9511 177.892 25.9511C178.357 25.9511 178.77 25.7824 179.082 25.4601C179.397 25.1379 179.563 24.7192 179.563 24.2433V18.909C179.563 17.6109 179.312 16.4934 178.82 15.5808V15.5838Z" fill="#29254D"/>
    <defs>
        <clipPath id="clip0_1220_2221">
            <rect width="34" height="34" fill="white"/>
        </clipPath>
    </defs>
</svg>
