<svg width="400" height="400" viewBox="0 0 400 400" fill="none"
    xmlns="http://www.w3.org/2000/svg">
    <path d="M167.058 166.304C185.348 148.014 185.348 117.919 167.058 99.6288C148.767 81.3384 118.673 81.3384 100.382 99.6288C82.0919 117.919 82.0919 148.014 100.382 166.304C111.489 177.411 122.614 188.536 133.72 199.642C144.826 188.536 155.952 177.411 167.058 166.304Z" fill="#C2BEE6" stroke="white" stroke-width="6.75"/>
    <path d="M100.401 299.636C118.692 317.927 148.786 317.927 167.077 299.636C185.367 281.346 185.367 251.251 167.077 232.961C144.845 210.748 122.633 188.517 100.401 166.304C97.9688 163.853 87.0699 152.351 86.6173 134.135C86.1271 114.431 98.2516 101.797 100.401 99.6287C78.1698 121.86 55.9572 144.073 33.7257 166.304C31.1047 168.944 20.8093 179.956 19.9796 197.36C18.9991 217.593 31.595 230.811 33.7257 232.98L100.401 299.636Z" fill="#665DC0" stroke="white" stroke-width="6.75"/>
    <path d="M233.526 232.962C215.235 251.252 215.235 281.346 233.526 299.637C251.816 317.927 281.911 317.927 300.201 299.637C318.492 281.346 318.492 251.252 300.201 232.962C289.095 221.855 277.97 210.73 266.863 199.624C255.757 210.73 244.632 221.855 233.526 232.962Z" fill="#C2BEE6" stroke="white" stroke-width="6.75"/>
    <path d="M300.182 99.6285C281.892 81.338 251.797 81.338 233.507 99.6285C215.216 117.919 215.216 148.013 233.507 166.304C255.738 188.517 277.951 210.748 300.182 232.961C302.615 235.412 313.514 246.914 313.966 265.129C314.456 284.834 302.332 297.468 300.182 299.636C322.414 277.405 344.626 255.192 366.858 232.961C369.479 230.321 379.774 219.309 380.604 201.904C381.584 181.672 368.989 168.454 366.858 166.285L300.182 99.6285Z" fill="#665DC0" stroke="white" stroke-width="6.75"/>
</svg>
