<svg id="Group_1390" data-name="Group 1390"
    xmlns="http://www.w3.org/2000/svg" width="50" height="50" viewBox="0 0 50 50">
    <g id="Rectangle_462" data-name="Rectangle 462" fill="none" stroke="rgba(231,234,240,0.16)" stroke-width="1" opacity="0">
        <rect width="50" height="50" stroke="none"/>
        <rect x="0.5" y="0.5" width="49" height="49" fill="none"/>
    </g>
    <g id="google-fonts-2021-2" transform="translate(13.214 15.998)">
        <path id="Path_984" data-name="Path 984" d="M0,19.92,11.41,2.01l6.116,3.9L8.6,19.92Z" transform="translate(0 -1.917)" fill="#fbbc04"/>
        <path id="Path_985" data-name="Path 985" d="M240.33,0h7.023V18H240.33Z" transform="translate(-229.161)" fill="#1a73e8"/>
        <circle id="Ellipse_91" data-name="Ellipse 91" cx="3.481" cy="3.481" r="3.481" transform="translate(0.409 0.299)" fill="#ea4335"/>
        <path id="Path_986" data-name="Path 986" d="M396.462,177.132a5,5,0,0,1-5,5v-10A5,5,0,0,1,396.462,177.132Z" transform="translate(-373.268 -164.131)" fill="#34a853"/>
        <path id="Path_987" data-name="Path 987" d="M288.822,172.125v10a5,5,0,1,1,0-10Z" transform="translate(-270.63 -164.126)" fill="#0d652d"/>
        <path id="Path_988" data-name="Path 988" d="M395.31,10.29a3.85,3.85,0,0,1-3.849,3.85V6.44a3.85,3.85,0,0,1,3.85,3.85Z" transform="translate(-373.268 -6.141)" fill="#1a73e8"/>
        <path id="Path_989" data-name="Path 989" d="M312.46,6.435v7.7a3.85,3.85,0,1,1,0-7.7Z" transform="translate(-294.268 -6.136)" fill="#174ea6"/>
    </g>
</svg>
