<svg width="12" height="12" viewBox="0 0 12 12" fill="none" xmlns="http://www.w3.org/2000/svg">
<path d="M11.9239 5.81701L10.3568 4.25213C10.3203 4.21566 10.2738 4.19083 10.2232 4.18077C10.1726 4.17071 10.1201 4.17588 10.0725 4.19562C10.0248 4.21536 9.98404 4.24879 9.95536 4.29168C9.92669 4.33457 9.91137 4.385 9.91135 4.43659V5.2194H6.78149V2.08964H7.56358C7.61518 2.08962 7.66561 2.07431 7.7085 2.04563C7.75139 2.01696 7.78482 1.97622 7.80456 1.92855C7.8243 1.88088 7.82947 1.82843 7.81941 1.77783C7.80935 1.72723 7.78452 1.68074 7.74804 1.64425L6.18387 0.0763722C6.13493 0.0274703 6.06858 0 5.9994 0C5.93022 0 5.86387 0.0274703 5.81494 0.0763722L4.25076 1.64425C4.21429 1.68074 4.18946 1.72723 4.1794 1.77783C4.16934 1.82843 4.17451 1.88088 4.19425 1.92855C4.21399 1.97622 4.24742 2.01696 4.29031 2.04563C4.3332 2.07431 4.38363 2.08962 4.43523 2.08964H5.21732V5.2194H2.08746V4.43659C2.08744 4.385 2.07212 4.33457 2.04345 4.29168C2.01477 4.24879 1.97403 4.21536 1.92636 4.19562C1.87869 4.17588 1.82624 4.17071 1.77564 4.18077C1.72503 4.19083 1.67855 4.21566 1.64205 4.25213L0.0763746 5.81701C0.0274712 5.86594 0 5.93229 0 6.00147C0 6.07065 0.0274712 6.13699 0.0763746 6.18592L1.6413 7.7508C1.6778 7.78727 1.72428 7.81211 1.77489 7.82217C1.82549 7.83223 1.87794 7.82706 1.92561 7.80732C1.97328 7.78758 2.01402 7.75415 2.0427 7.71126C2.07137 7.66837 2.08669 7.61794 2.08671 7.56635V6.78353H5.21732V9.91329H4.43448C4.38288 9.91331 4.33245 9.92863 4.28956 9.9573C4.24667 9.98597 4.21324 10.0267 4.1935 10.0744C4.17376 10.1221 4.16859 10.1745 4.17865 10.2251C4.18871 10.2757 4.21354 10.3222 4.25001 10.3587L5.81494 11.9236C5.864 11.9725 5.93048 12 5.99978 12C6.06908 12 6.13556 11.9725 6.18462 11.9236L7.74954 10.3587C7.78602 10.3222 7.81085 10.2757 7.82091 10.2251C7.83097 10.1745 7.8258 10.1221 7.80606 10.0744C7.78632 10.0267 7.75289 9.98597 7.71 9.9573C7.66711 9.92863 7.61668 9.91331 7.56508 9.91329H6.78149V6.78353H9.91135V7.5656C9.91137 7.61719 9.92669 7.66762 9.95536 7.71051C9.98404 7.7534 10.0248 7.78683 10.0725 7.80657C10.1201 7.82631 10.1726 7.83148 10.2232 7.82142C10.2738 7.81136 10.3203 7.78652 10.3568 7.75005L11.9239 6.18592C11.9727 6.1369 12 6.07058 12 6.00147C12 5.93235 11.9727 5.86604 11.9239 5.81701Z" fill="#F6F6F6"/>
</svg>
