<svg width="20" height="20" viewBox="0 0 20 20" fill="none"
    xmlns="http://www.w3.org/2000/svg">
    <path fill-rule="evenodd" clip-rule="evenodd" d="M7.25 2.5H12.75C13 2.5 13.1667 2.58333 13.3333 2.75L17.25 6.66667C17.4167 6.83333 17.5 7 17.5 7.25V12.75C17.5 13 17.4167 13.1667 17.25 13.3333L13.3333 17.25C13.1667 17.4167 13 17.5 12.75 17.5H7.25C7 17.5 6.83333 17.4167 6.66667 17.25L2.75 13.3333C2.58333 13.1667 2.5 13 2.5 12.75V7.25C2.5 7 2.58333 6.83333 2.75 6.66667L6.66667 2.75C6.83333 2.58333 7 2.5 7.25 2.5Z" fill="#B71B23" stroke="#E2E2E2" stroke-width="1.25" stroke-linecap="round" stroke-linejoin="round"/>
    <path d="M9.99992 6.66669V10" stroke="#E2E2E2" stroke-width="1.25" stroke-linecap="round" stroke-linejoin="round"/>
    <path d="M9.9999 13.3334H10.0082" stroke="#E2E2E2" stroke-width="1.25" stroke-linecap="round" stroke-linejoin="round"/>
</svg>
