<svg id="Group_1820" data-name="Group 1820"
    xmlns="http://www.w3.org/2000/svg" width="18" height="18" viewBox="0 0 18 18">
    <path id="Path_251" data-name="Path 251" d="M0,0H18V18H0Z" fill="none"/>
    <line id="Line_25" data-name="Line 25" x2="12" transform="translate(3 5.25)" fill="none" stroke="#e7eaf0" stroke-linecap="round" stroke-linejoin="round" stroke-width="1"/>
    <line id="Line_26" data-name="Line 26" y2="4.5" transform="translate(7.5 8.25)" fill="none" stroke="#e7eaf0" stroke-linecap="round" stroke-linejoin="round" stroke-width="1"/>
    <line id="Line_27" data-name="Line 27" y2="4.5" transform="translate(10.5 8.25)" fill="none" stroke="#e7eaf0" stroke-linecap="round" stroke-linejoin="round" stroke-width="1"/>
    <path id="Path_252" data-name="Path 252" d="M5,7l.75,9a1.5,1.5,0,0,0,1.5,1.5h6a1.5,1.5,0,0,0,1.5-1.5l.75-9" transform="translate(-1.25 -1.75)" fill="none" stroke="#e7eaf0" stroke-linecap="round" stroke-linejoin="round" stroke-width="1"/>
    <path id="Path_253" data-name="Path 253" d="M9,6V3.75A.75.75,0,0,1,9.75,3h3a.75.75,0,0,1,.75.75V6" transform="translate(-2.25 -0.75)" fill="none" stroke="#e7eaf0" stroke-linecap="round" stroke-linejoin="round" stroke-width="1"/>
</svg>
