<svg width="20" height="20" viewBox="0 0 20 20" fill="none"
    xmlns="http://www.w3.org/2000/svg">
    <path d="M15.9968 3.33333H3.99682C3.64319 3.33333 3.30406 3.4738 3.05401 3.72385C2.80396 3.9739 2.66348 4.31304 2.66348 4.66666V15.3333C2.66348 15.687 2.80396 16.0261 3.05401 16.2761C3.30406 16.5262 3.64319 16.6667 3.99682 16.6667H15.9968C16.3504 16.6667 16.6896 16.5262 16.9396 16.2761C17.1897 16.0261 17.3301 15.687 17.3301 15.3333V4.66666C17.3301 4.31304 17.1897 3.9739 16.9396 3.72385C16.6896 3.4738 16.3504 3.33333 15.9968 3.33333ZM9.33015 13.6667L8.33015 14.6667L5.33015 11.6667L8.33015 8.66666L9.33015 9.66666L7.33015 11.6667L9.33015 13.6667ZM11.6635 14.6667L11.1635 14.1667L10.6635 13.6667L12.6635 11.6667L10.6635 9.66666L11.6635 8.66666L14.6635 11.6667L11.6635 14.6667ZM15.9968 6.66666H3.99682V4.66666H15.9968V6.66666Z" fill="#F6F6F6"/>
</svg>
