<svg width="10" height="7" viewBox="0 0 10 7" fill="none"
    xmlns="http://www.w3.org/2000/svg">
    <path d="M9.05762 0.1875C9.14225 0.1875 9.22201 0.205404 9.29688 0.241211C9.37174 0.273763 9.43685 0.319336 9.49219 0.37793C9.55078 0.433268 9.59635 0.498372 9.62891 0.573242C9.66471 0.648112 9.68262 0.727865 9.68262 0.8125C9.68262 0.988281 9.6224 1.13639 9.50195 1.25684L4.3457 6.41309C4.22526 6.53353 4.07715 6.59375 3.90137 6.59375C3.72559 6.59375 3.57747 6.53353 3.45703 6.41309L0.488281 3.44434C0.367839 3.32389 0.307617 3.17578 0.307617 3C0.307617 2.91536 0.323893 2.83561 0.356445 2.76074C0.392253 2.68587 0.437826 2.62077 0.493164 2.56543C0.551758 2.50684 0.61849 2.46126 0.693359 2.42871C0.771484 2.3929 0.851237 2.375 0.932617 2.375C1.1084 2.375 1.25651 2.43522 1.37695 2.55566L3.90137 5.08496L8.61328 0.368164C8.73372 0.247721 8.88184 0.1875 9.05762 0.1875Z" fill="white"/>
</svg>
