<svg width="313" height="303" viewBox="0 0 313 303" fill="none" xmlns="http://www.w3.org/2000/svg">
<g clip-path="url(#clip0_739_725)">
<path d="M101.336 165.121C101.336 165.121 108.301 172.313 108.919 176.368L102.86 179.855L95.8669 167.609L92.1785 151.262C91.8321 150.916 91.5835 150.484 91.4582 150.01C91.3329 149.536 91.3351 149.038 91.4648 148.566C91.5945 148.093 91.847 147.664 92.1966 147.32C92.5462 146.977 92.9805 146.732 93.4554 146.611C93.9304 146.489 94.429 146.495 94.9007 146.629C95.3724 146.762 95.8004 147.018 96.1412 147.37C96.482 147.722 96.7236 148.158 96.8413 148.634C96.959 149.109 96.9487 149.607 96.8114 150.078L101.336 165.121Z" fill="#FFB6B6"/>
<path d="M165.936 147.876C165.816 147.401 165.824 146.903 165.959 146.432C166.095 145.961 166.352 145.534 166.706 145.195C167.06 144.856 167.497 144.616 167.973 144.5C168.449 144.385 168.948 144.397 169.418 144.536C169.888 144.675 170.313 144.935 170.65 145.292C170.986 145.648 171.223 146.086 171.335 146.563C171.447 147.04 171.43 147.538 171.288 148.007C171.145 148.475 170.88 148.898 170.521 149.231L166.229 165.43L158.786 177.408L152.86 173.699C153.629 169.67 160.856 162.741 160.856 162.741L165.936 147.876Z" fill="#FFB6B6"/>
<path d="M55.5633 206.631C55.5197 197.084 59.1865 188.086 63.2623 179.62C67.474 170.872 72.2685 162.29 74.6485 152.805C76.0383 147.582 76.3763 142.135 75.643 136.781C75.4992 135.826 74.0474 136.232 74.1904 137.181C75.6499 146.869 72.4953 156.517 68.5669 165.254C64.6714 173.918 59.8151 182.16 56.7758 191.196C55.0277 196.157 54.1091 201.372 54.0569 206.631C54.0636 206.826 54.146 207.011 54.2865 207.147C54.427 207.282 54.6147 207.358 54.8101 207.358C55.0054 207.358 55.1932 207.282 55.3337 207.147C55.4742 207.011 55.5565 206.826 55.5633 206.631Z" fill="#E6E6E6"/>
<path d="M99.3423 209.835C99.0203 205.771 101.892 202.38 105.281 200.514C109.581 198.147 114.787 198.35 119.539 198.491C124.415 198.686 129.299 198.454 134.134 197.798C145.553 196.14 156.418 191.81 165.845 185.161C175.272 178.512 182.995 169.732 188.383 159.536C192.853 151.08 196 141.33 194.743 131.673C194.591 130.499 194.374 129.334 194.095 128.183C193.865 127.242 192.412 127.641 192.642 128.583C194.982 138.177 192.299 148.226 188.045 156.887C184.135 164.826 178.802 171.982 172.309 178C165.51 184.302 157.544 189.217 148.86 192.468C144.349 194.153 139.684 195.39 134.931 196.162C130.114 196.907 125.237 197.191 120.365 197.01C115.522 196.869 110.389 196.614 105.838 198.573C102.276 200.106 98.969 203.142 98.0513 207.023C97.8339 207.943 97.7612 208.892 97.836 209.835C97.912 210.794 99.419 210.802 99.3423 209.835Z" fill="#E6E6E6"/>
<path d="M252.763 70.6998C250.99 69.902 249.248 69.1343 247.581 68.4269C247.33 68.3215 247.079 68.2111 246.828 68.1057L246.798 68.0907C245.296 67.4485 243.791 66.8196 242.283 66.2041C241.229 65.7726 240.18 65.3461 239.125 64.9297C238.713 64.7591 238.302 64.5985 237.885 64.438C237.217 64.1721 236.544 63.9111 235.876 63.6502C235.324 63.4345 234.767 63.2237 234.214 63.013C233.577 62.7672 232.939 62.5313 232.306 62.2905C231.553 62.0095 230.802 61.7319 230.052 61.4576C230.044 61.4535 230.035 61.4518 230.027 61.4526C229.459 61.2418 228.892 61.0361 228.329 60.8354C220.692 58.0859 212.944 55.6273 205.292 53.525C205.016 53.4497 204.74 53.3744 204.463 53.2992C203.986 53.1687 203.509 53.0383 203.032 52.9078C202.189 52.682 201.342 52.4613 200.492 52.2455C199.693 52.0348 198.89 51.8341 198.086 51.6334C197.378 51.4578 196.67 51.2822 195.957 51.1116C195.259 50.941 194.562 50.7754 193.859 50.6148C191.765 50.1231 189.674 49.6582 187.587 49.22C187.572 49.2158 187.557 49.2141 187.542 49.215C187.04 49.1046 186.543 48.9992 186.04 48.8989C178.418 47.3384 170.665 46.0841 162.998 45.1659C162.621 45.1207 162.245 45.0755 161.868 45.0354H161.858C161.793 45.0254 161.723 45.0204 161.657 45.0153C161.025 44.9401 160.392 44.8698 159.759 44.8046C158.926 44.7143 158.097 44.629 157.264 44.5487C155.29 44.353 153.32 44.1824 151.354 44.0369C150.857 43.9968 150.365 43.9617 149.873 43.9316C149.305 43.8864 148.738 43.8513 148.175 43.8162C147.593 43.776 147.01 43.7409 146.428 43.7108C146.207 43.6957 145.991 43.6857 145.775 43.6757C145.504 43.6556 145.228 43.6456 144.957 43.6305C144.55 43.6104 144.143 43.5904 143.737 43.5703C136.084 43.204 128.336 43.1739 120.704 43.48C120.282 43.495 119.861 43.5151 119.434 43.5352H119.419C119.112 43.5502 118.806 43.5603 118.495 43.5753C118.384 43.5803 118.269 43.5854 118.158 43.5904C117.4 43.6305 116.642 43.6707 115.884 43.7158C115.075 43.761 114.272 43.8111 113.469 43.8663C112.961 43.9015 112.459 43.9366 111.957 43.9717C111.626 43.9968 111.294 44.0219 110.958 44.047C108.859 44.2075 106.76 44.3932 104.676 44.6039C103.978 44.6742 103.285 44.7444 102.593 44.8197C102.206 44.8598 101.824 44.8999 101.443 44.9451C93.7903 45.8081 86.0375 47.0273 78.4052 48.5627C77.9031 48.663 77.396 48.7684 76.8888 48.8738C76.8788 48.8738 76.8687 48.8788 76.8587 48.8788C76.7834 48.8938 76.703 48.9089 76.6277 48.929C76.1055 49.0343 75.5783 49.1447 75.0561 49.2601C74.4786 49.3805 73.9062 49.506 73.3288 49.6314C72.8467 49.7368 72.3647 49.8472 71.8826 49.9576C70.7478 50.2134 69.608 50.4744 68.4732 50.7503C66.1634 51.3023 63.8554 51.8859 61.5489 52.5014C61.0267 52.6419 60.4995 52.7824 59.9723 52.9279C59.9684 52.9283 59.9648 52.93 59.9622 52.9329C59.6911 53.0032 59.4149 53.0784 59.1437 53.1537C51.5115 55.251 43.7637 57.7296 36.1113 60.5294C35.5489 60.7351 34.9866 60.9408 34.4192 61.1565C34.4053 61.1575 34.3917 61.1609 34.379 61.1666C32.8576 61.7336 31.3278 62.3156 29.7896 62.9127C29.2322 63.1334 28.6698 63.3542 28.1075 63.575C27.5652 63.7907 27.0179 64.0065 26.4756 64.2272C25.9986 64.4179 25.5266 64.6086 25.0495 64.8043C24.6679 64.9598 24.2913 65.1153 23.9097 65.2709C22.6042 65.8128 21.3003 66.3613 19.9982 66.9166C19.2098 67.2578 18.4165 67.599 17.6281 67.9452C17.3721 68.0556 17.111 68.166 16.8549 68.2814C14.9568 69.1193 13.2295 69.897 11.5725 70.6647C9.80782 71.4802 8.31278 72.7822 7.26318 74.4177C6.21358 76.0531 5.65304 77.954 5.64746 79.8968V97.6035C5.64745 99.181 6.01528 100.737 6.72177 102.148C7.42826 103.558 8.45399 104.785 9.71759 105.731C10.9812 106.676 12.4479 107.315 14.0015 107.596C15.555 107.876 17.1526 107.791 18.6675 107.347C19.4157 107.127 20.1639 106.906 20.9171 106.685C21.5447 106.499 22.1774 106.319 22.805 106.138C23.493 105.943 24.1758 105.747 24.8638 105.551C26.4354 105.115 28.0171 104.678 29.5988 104.257C30.3369 104.061 31.075 103.865 31.8131 103.67C32.9731 103.364 34.133 103.068 35.2929 102.771C35.6142 102.691 35.9356 102.611 36.2569 102.531C41.3033 101.266 46.3747 100.092 51.406 99.0284C51.9232 98.918 52.4404 98.8127 52.9526 98.7073C55.0665 98.2658 57.1687 97.8477 59.2592 97.453L60.7656 97.167H60.7807C61.2728 97.0716 61.7648 96.9813 62.2569 96.891C63.6327 96.6401 65.0169 96.3959 66.4095 96.1584C67.2079 96.0179 68.0113 95.8825 68.8147 95.752C68.895 95.737 68.9753 95.7219 69.0557 95.7119C70.4415 95.4811 71.8308 95.2587 73.2233 95.0446C74.1673 94.8991 75.1163 94.7536 76.0653 94.6181C76.8738 94.4977 77.6822 94.3823 78.4906 94.2669C86.153 93.1931 93.8907 92.3351 101.493 91.7331C102.151 91.6779 102.808 91.6277 103.466 91.5775C106.017 91.3868 108.588 91.2163 111.164 91.0758C114.347 90.9052 117.541 90.7697 120.719 90.6744C128.352 90.4385 136.089 90.4385 143.716 90.6744C146.9 90.7697 150.093 90.9052 153.277 91.0758C155.853 91.2163 158.424 91.3869 160.974 91.5775C161.632 91.6277 162.29 91.6779 162.948 91.7331C170.545 92.3351 178.283 93.1881 185.955 94.2669C186.322 94.3171 186.683 94.3722 187.05 94.4224C187.18 94.4425 187.306 94.4575 187.436 94.4776C187.994 94.5579 188.551 94.6432 189.109 94.7235C191.202 95.0345 193.295 95.364 195.385 95.7119C195.922 95.7972 196.46 95.8875 196.992 95.9778C198.142 96.1735 199.287 96.3725 200.426 96.5749C201.089 96.6953 201.747 96.8158 202.405 96.9362C202.822 97.0114 203.243 97.0867 203.66 97.167C204.167 97.2623 204.674 97.3576 205.176 97.453C206.005 97.6085 206.833 97.7691 207.667 97.9347C208.189 98.04 208.716 98.1404 209.244 98.2507C214.862 99.3797 220.536 100.649 226.185 102.034C226.773 102.179 227.36 102.325 227.948 102.47C228.028 102.491 228.103 102.511 228.184 102.531C228.791 102.681 229.399 102.837 230.007 102.992C230.875 103.213 231.746 103.439 232.618 103.67C233.356 103.86 234.094 104.056 234.832 104.257C237.112 104.864 239.391 105.496 241.656 106.143C243.037 106.54 244.411 106.941 245.778 107.347H245.788C246.333 107.509 246.891 107.623 247.455 107.689C247.855 107.739 248.258 107.764 248.66 107.764C251.352 107.758 253.932 106.685 255.832 104.78C257.732 102.874 258.797 100.293 258.793 97.6035V79.9771C258.788 78.0148 258.217 76.0956 257.147 74.45C256.077 72.8044 254.555 71.5022 252.763 70.6998Z" fill="#665DC0"/>
<path d="M35.7849 61.3422C35.5881 61.2058 35.3617 61.1179 35.1243 61.0856C34.887 61.0534 34.6453 61.0777 34.4192 61.1565C34.4053 61.1575 34.3917 61.1609 34.379 61.1666C32.8576 61.7336 31.3278 62.3156 29.7896 62.9127C29.2322 63.1334 28.6698 63.3542 28.1075 63.575C27.5652 63.7907 27.0179 64.0065 26.4756 64.2272C25.9985 64.4179 25.5266 64.6086 25.0495 64.8042C24.6679 64.9598 24.2913 65.1153 23.9097 65.2709C22.6042 65.8128 21.3003 66.3613 19.9982 66.9166C19.2098 67.2578 18.4165 67.599 17.6281 67.9452C17.3535 68.0648 17.1197 68.2619 16.9556 68.5123C16.7915 68.7628 16.7041 69.0557 16.7042 69.3551V105.867C16.7032 106.108 16.7591 106.346 16.8673 106.561C16.9755 106.777 17.1329 106.963 17.3269 107.107C17.45 107.197 17.5852 107.269 17.7286 107.322C18.0314 107.429 18.3604 107.436 18.6675 107.342L20.912 106.68C21.5397 106.499 22.1673 106.319 22.795 106.138C23.4829 105.943 24.1708 105.747 24.8638 105.551C26.4354 105.115 28.0171 104.678 29.5988 104.257C30.3369 104.056 31.0751 103.86 31.8132 103.67C32.9731 103.364 34.133 103.068 35.2929 102.771C35.5792 102.698 35.8388 102.545 36.041 102.33L36.0461 102.325C36.3039 102.042 36.4471 101.674 36.4478 101.291V62.6066C36.448 62.358 36.3877 62.113 36.2723 61.8928C36.1568 61.6725 35.9896 61.4836 35.7849 61.3422Z" fill="#3F3D56"/>
<path d="M78.134 49.1899C77.9626 49.0487 77.7621 48.9472 77.5468 48.8925C77.3315 48.8379 77.1068 48.8315 76.8887 48.8738C76.8787 48.8738 76.8686 48.8788 76.8586 48.8788C76.7833 48.8939 76.7029 48.9089 76.6276 48.929C76.1054 49.0344 75.5782 49.1447 75.056 49.2601C74.4785 49.3806 73.9061 49.506 73.3287 49.6314C72.8466 49.7368 72.3646 49.8472 71.8825 49.9576C70.7477 50.2135 69.6079 50.4744 68.4731 50.7503C66.1583 51.3023 63.8502 51.886 61.5488 52.5014C61.0668 52.6269 60.5797 52.7573 60.0977 52.8878C60.0551 52.8989 60.0132 52.9123 59.9722 52.9279C59.9683 52.9283 59.9647 52.9301 59.9621 52.9329C59.6692 53.0436 59.4168 53.2405 59.2384 53.4977C59.06 53.7548 58.9639 54.06 58.9629 54.3729V95.6617C58.9624 95.8868 59.0116 96.1092 59.1071 96.313C59.2026 96.5169 59.3419 96.6971 59.5152 96.8408C59.6341 96.94 59.768 97.0196 59.9119 97.0767C60.0968 97.1524 60.2946 97.1916 60.4944 97.1921C60.5853 97.1912 60.676 97.1828 60.7655 97.167H60.7806C61.2727 97.0716 61.7647 96.9813 62.2568 96.891C63.6326 96.6401 65.0168 96.396 66.4094 96.1585C67.2078 96.018 68.0112 95.8825 68.8146 95.752C68.8949 95.737 68.9752 95.7219 69.0556 95.7119C70.4415 95.4811 71.8307 95.2587 73.2232 95.0446C74.1672 94.8991 75.1162 94.7536 76.0652 94.6181C76.5071 94.5479 76.949 94.4877 77.3908 94.4225C77.6834 94.382 77.9576 94.2564 78.1792 94.0612C78.3441 93.9174 78.4765 93.74 78.5674 93.541C78.6584 93.342 78.7057 93.1259 78.7064 92.9072V50.3841C78.7066 50.1549 78.6552 49.9286 78.5561 49.7219C78.4571 49.5152 78.3128 49.3334 78.134 49.1899Z" fill="#3F3D56"/>
<path d="M120.488 43.9616C120.203 43.6912 119.827 43.5388 119.434 43.5352H119.358C119.072 43.5502 118.781 43.5602 118.495 43.5753C118.384 43.5803 118.269 43.5853 118.158 43.5903C117.4 43.6305 116.642 43.6706 115.884 43.7158C115.075 43.7609 114.272 43.8111 113.468 43.8663C112.961 43.9014 112.459 43.9366 111.957 43.9717C111.626 43.9968 111.294 44.0219 110.958 44.0469C108.859 44.2075 106.76 44.3931 104.676 44.6039C103.978 44.6741 103.285 44.7444 102.592 44.8196C102.215 44.8603 101.866 45.0392 101.613 45.3218C101.36 45.6044 101.22 45.9707 101.222 46.35V90.0973C101.221 90.3078 101.265 90.516 101.35 90.7086C101.434 90.9013 101.558 91.0742 101.714 91.2162C101.807 91.3046 101.912 91.3805 102.025 91.442C102.25 91.5637 102.502 91.6275 102.758 91.6276C102.793 91.6276 102.834 91.6226 102.874 91.6226C103.07 91.6076 103.27 91.5925 103.466 91.5775C106.017 91.3868 108.588 91.2162 111.164 91.0757C113.94 90.9202 116.717 90.7998 119.479 90.7094C119.778 90.7049 120.068 90.6105 120.312 90.4385C120.515 90.2969 120.68 90.1084 120.794 89.889C120.908 89.6697 120.966 89.4261 120.965 89.1791V45.0755C120.966 44.8671 120.924 44.6608 120.842 44.4692C120.76 44.2776 120.64 44.1049 120.488 43.9616Z" fill="#3F3D56"/>
<path d="M161.868 45.0355H161.858C161.793 45.0254 161.723 45.0204 161.657 45.0154C161.025 44.9401 160.392 44.8699 159.759 44.8047C158.926 44.7144 158.097 44.6291 157.264 44.5488C155.29 44.3531 153.32 44.1825 151.354 44.037C150.857 43.9969 150.364 43.9617 149.872 43.9316C149.305 43.8865 148.738 43.8513 148.175 43.8162C147.593 43.7761 147.01 43.741 146.428 43.7109C146.207 43.6958 145.991 43.6858 145.775 43.6757C145.544 43.6607 145.318 43.6456 145.092 43.6356C145.047 43.6314 145.002 43.6297 144.957 43.6306C144.583 43.6417 144.226 43.792 143.957 44.052C143.805 44.1956 143.683 44.369 143.6 44.5615C143.517 44.754 143.475 44.9614 143.475 45.1709V89.1792C143.474 89.4268 143.533 89.6709 143.648 89.8904C143.763 90.1099 143.929 90.2981 144.133 90.4386C144.376 90.6105 144.664 90.705 144.962 90.7095C147.723 90.7998 150.5 90.9203 153.277 91.0758C155.853 91.2163 158.424 91.3869 160.974 91.5775C161.17 91.5926 161.371 91.6077 161.567 91.6227C161.607 91.6227 161.642 91.6277 161.682 91.6277C161.938 91.6276 162.19 91.5638 162.416 91.4421C162.529 91.3806 162.633 91.3047 162.727 91.2163C162.881 91.0735 163.005 90.9005 163.089 90.708C163.174 90.5155 163.218 90.3077 163.219 90.0974V46.5608C163.218 46.186 163.08 45.8244 162.831 45.5437C162.583 45.263 162.24 45.0823 161.868 45.0355Z" fill="#3F3D56"/>
<path d="M204.463 53.2992C204.424 53.2836 204.384 53.2702 204.343 53.259C203.906 53.1386 203.469 53.0232 203.032 52.9078C202.189 52.682 201.342 52.4613 200.492 52.2455C199.693 52.0348 198.89 51.8341 198.086 51.6334C197.378 51.4578 196.67 51.2821 195.957 51.1115C195.259 50.941 194.561 50.7754 193.858 50.6148C191.765 50.1231 189.674 49.6581 187.587 49.22C187.572 49.2158 187.557 49.2141 187.542 49.2149C187.325 49.1745 187.103 49.1818 186.889 49.2364C186.676 49.291 186.477 49.3916 186.307 49.531C186.128 49.6746 185.983 49.8564 185.884 50.0631C185.785 50.2697 185.734 50.496 185.734 50.7252V92.9071C185.735 93.1264 185.782 93.343 185.874 93.5422C185.966 93.7413 186.1 93.9183 186.266 94.0611C186.486 94.2562 186.759 94.3819 187.05 94.4224C187.18 94.4425 187.306 94.4575 187.436 94.4776C187.994 94.5578 188.551 94.6381 189.108 94.7234C191.202 95.0345 193.294 95.364 195.385 95.7119C195.922 95.7972 196.46 95.8875 196.992 95.9778C198.142 96.1735 199.286 96.3725 200.426 96.5749C201.089 96.6953 201.747 96.8157 202.405 96.9361C202.821 97.0114 203.243 97.0867 203.66 97.1669C203.755 97.1828 203.85 97.1912 203.946 97.192C204.146 97.1921 204.344 97.1529 204.529 97.0766C204.673 97.0208 204.807 96.941 204.925 96.8408C205.099 96.6971 205.238 96.5168 205.333 96.313C205.429 96.1092 205.478 95.8868 205.478 95.6617V54.7442C205.477 54.4285 205.38 54.1206 205.198 53.8622C205.017 53.6037 204.76 53.4072 204.463 53.2992Z" fill="#3F3D56"/>
<path d="M246.828 68.1057L246.798 68.0907C245.296 67.4484 243.791 66.8196 242.283 66.2041C241.229 65.7726 240.18 65.3461 239.125 64.9297C238.713 64.7591 238.302 64.5985 237.885 64.438C237.217 64.172 236.544 63.9111 235.876 63.6502C235.324 63.4345 234.767 63.2237 234.214 63.013C233.577 62.7671 232.939 62.5313 232.306 62.2905C231.553 62.0095 230.801 61.7319 230.052 61.4576C230.044 61.4535 230.035 61.4518 230.027 61.4526C229.799 61.3706 229.555 61.3452 229.315 61.3784C229.075 61.4116 228.847 61.5025 228.651 61.6432C228.448 61.7847 228.282 61.973 228.167 62.1923C228.053 62.4116 227.993 62.6553 227.993 62.9026V101.291C227.993 101.61 228.093 101.921 228.279 102.179C228.315 102.23 228.353 102.279 228.395 102.325L228.4 102.33C228.601 102.546 228.861 102.7 229.148 102.771C229.434 102.842 229.72 102.917 230.006 102.992C230.875 103.213 231.745 103.439 232.617 103.67C233.356 103.86 234.094 104.056 234.832 104.257C237.112 104.864 239.391 105.496 241.656 106.143C243.037 106.54 244.411 106.941 245.778 107.347H245.788C245.927 107.387 246.071 107.407 246.215 107.408C246.384 107.407 246.552 107.378 246.712 107.322C246.856 107.271 246.992 107.199 247.114 107.107C247.306 106.962 247.462 106.775 247.57 106.56C247.677 106.345 247.732 106.108 247.731 105.867V69.5056C247.732 69.21 247.647 68.9205 247.487 68.6721C247.326 68.4237 247.097 68.227 246.828 68.1057Z" fill="#3F3D56"/>
<path d="M20.9508 106.71C27.4896 111.112 34.317 115.071 41.1975 118.912C48.558 123.021 55.9954 126.99 63.3573 131.096C70.7636 135.227 78.1042 139.492 85.1853 144.162C92.0708 148.616 98.581 153.623 104.651 159.136C110.399 164.452 115.605 170.394 119.698 177.085C120.186 177.883 120.658 178.691 121.114 179.508C121.586 180.354 122.888 179.595 122.414 178.748C118.516 171.927 113.663 165.697 108.002 160.248C102.082 154.552 95.6727 149.387 88.8479 144.812C81.8132 140 74.4797 135.64 67.0616 131.449C59.6653 127.27 52.173 123.264 44.7378 119.156C37.7387 115.288 30.7748 111.336 24.0706 106.972C23.28 106.458 22.4935 105.937 21.7111 105.41C20.905 104.867 20.1502 106.171 20.9508 106.71Z" fill="#3F3D56"/>
<path d="M46.3658 89.0461C49.4986 96.1006 53.3477 102.815 57.8525 109.085C62.4628 115.505 67.394 121.689 72.6275 127.614C77.8625 133.64 83.2543 139.528 88.5273 145.521C93.7402 151.445 98.8514 157.475 103.519 163.842C108.151 170.04 112.174 176.67 115.531 183.639C115.938 184.503 116.331 185.373 116.71 186.25C117.094 187.136 118.392 186.37 118.01 185.49C114.878 178.435 111.029 171.721 106.524 165.451C101.913 159.031 96.9823 152.847 91.7488 146.922C86.5138 140.896 81.1219 135.008 75.849 129.015C70.6361 123.09 65.5249 117.061 60.8573 110.694C56.2254 104.496 52.2026 97.8664 48.8449 90.8969C48.4385 90.0328 48.0457 89.1626 47.6665 88.2863C47.2821 87.3998 45.9839 88.1654 46.3658 89.0461Z" fill="#3F3D56"/>
<path d="M230.504 98.0221C224.759 103.5 218.674 108.611 212.286 113.326C205.658 118.311 198.85 123.05 192.076 127.833C185.313 132.608 178.574 137.425 172.08 142.564C165.813 147.421 159.929 152.751 154.477 158.507C149.39 163.988 144.83 170.025 141.412 176.692C141.001 177.494 140.607 178.304 140.23 179.122C139.827 179.996 141.125 180.762 141.531 179.882C144.711 173.18 148.852 166.978 153.823 161.469C159.079 155.645 164.809 150.264 170.953 145.384C177.336 140.206 184.004 135.389 190.708 130.638C197.488 125.834 204.32 121.102 210.997 116.155C217.447 111.468 223.629 106.422 229.513 101.042C230.205 100.397 230.891 99.7456 231.569 99.0865C232.265 98.4101 231.2 97.3463 230.504 98.0221Z" fill="#3F3D56"/>
<path d="M214.978 84.1662C211.845 91.2208 207.996 97.9354 203.491 104.205C198.878 110.623 193.941 116.803 188.699 122.72C183.459 128.742 178.067 134.629 172.797 140.626C167.588 146.554 162.492 152.595 157.825 158.962C153.193 165.16 149.17 171.79 145.812 178.759C145.406 179.623 145.013 180.493 144.634 181.37C144.252 182.249 145.55 183.017 145.935 182.129C149.068 175.075 152.917 168.36 157.421 162.091C162.035 155.673 166.972 149.493 172.213 143.576C177.454 137.554 182.846 131.666 188.115 125.67C193.325 119.741 198.42 113.701 203.088 107.333C207.72 101.136 211.743 94.506 215.1 87.5365C215.507 86.6724 215.899 85.8023 216.279 84.9259C216.66 84.0462 215.363 83.2788 214.978 84.1662Z" fill="#3F3D56"/>
<path d="M103.773 275.279L104.723 278.57L117.88 276.477L116.478 271.619L103.773 275.279Z" fill="#FFB6B6"/>
<path d="M100.304 276.152L103.224 286.274L103.352 286.237C104.397 285.936 105.28 285.232 105.807 284.28C106.333 283.328 106.459 282.207 106.158 281.162L107.028 278.909L104.63 275.864L104.375 274.98L100.304 276.152Z" fill="#2F2E41"/>
<path d="M160.263 291.446L163.608 290.694L162.301 277.446L157.364 278.555L160.263 291.446Z" fill="#FFB6B6"/>
<path d="M159.954 295.199L170.239 292.889L170.21 292.759C169.971 291.698 169.321 290.776 168.401 290.194C167.482 289.612 166.369 289.42 165.307 289.658L163.108 288.656L159.923 290.867L159.026 291.068L159.954 295.199Z" fill="#2F2E41"/>
<path d="M150.027 220.491L165.171 282.587L157.763 283.243L149.555 262.462L136.884 238.002L138.029 265.92L114.455 279.697L108.915 272.113L127.761 261.985L119.528 225.037L121.719 220.491L150.027 220.491Z" fill="#2F2E41"/>
<path d="M119.683 225.929C117.228 222.494 121.77 216.839 122.327 215.643C121.666 215.429 121.099 214.992 120.724 214.407C120.349 213.822 120.188 213.125 120.269 212.435L120.51 210.396L120.76 208.396L118.967 206.604L118.962 206.559L117.93 197.539L116.43 191.547C115.865 189.282 115.913 186.908 116.57 184.667C117.226 182.427 118.468 180.402 120.166 178.8L123.634 178.249L127.848 174.192H134.644L136.974 176.417C141.323 177.179 142.071 176.93 145.807 181.41L144.109 195.339L143.686 197.255L143.687 199.855L144.764 201.05C145.151 201.481 145.433 201.996 145.587 202.555C145.74 203.114 145.761 203.701 145.647 204.269L145.505 204.976C146.616 205.452 147.675 213.903 147.929 215.084L148.307 216.847C148.63 217.274 150.766 220.119 150.766 220.897C150.766 221.014 150.68 221.127 150.495 221.252C149.039 222.237 136.299 224.844 132.739 223.42C128.946 221.905 119.683 225.929 119.683 225.929Z" fill="#E6E6E6"/>
<path d="M106.066 184.6L109.054 188.251C110.178 189.625 111.564 190.764 113.13 191.601C114.697 192.439 116.413 192.958 118.182 193.13C119.277 193.233 120.38 193.027 121.365 192.536C122.35 192.045 123.178 191.289 123.755 190.353C124.529 189.079 124.79 187.558 124.485 186.099C124.18 184.639 123.332 183.35 122.112 182.492C118.41 179.892 116.391 175.864 113.481 177.17L112.855 175.634L104.65 169.009L97.9253 174.775L106.066 184.6Z" fill="#E6E6E6"/>
<path d="M163.906 172.515L157.4 166.504L152.326 169.732L151.643 171.245C148.783 169.832 143.245 176.869 139.449 179.33C138.199 180.142 137.303 181.399 136.944 182.846C136.585 184.293 136.789 185.822 137.516 187.125C138.058 188.082 138.857 188.868 139.823 189.395C140.789 189.922 141.883 190.168 142.982 190.106C144.755 190 146.49 189.545 148.087 188.766C149.683 187.987 151.11 186.901 152.285 185.569L155.406 182.031L163.906 172.515Z" fill="#E6E6E6"/>
<path d="M130.787 172.232C134.955 172.232 138.334 168.856 138.334 164.691C138.334 160.526 134.955 157.149 130.787 157.149C126.619 157.149 123.24 160.526 123.24 164.691C123.24 168.856 126.619 172.232 130.787 172.232Z" fill="#FFB6B6"/>
<path d="M125.312 170.008C125.245 169.949 125.183 169.887 125.118 169.828C125.115 169.834 125.115 169.84 125.113 169.846L125.312 170.008Z" fill="#2F2E41"/>
<path d="M137.872 161.862C137.832 161.837 137.796 161.812 137.756 161.792C137.26 161.402 136.645 161.195 136.014 161.205C135.411 161.28 134.914 161.712 134.337 161.882C133.097 162.244 131.846 161.36 130.561 161.27H130.531C130.121 161.244 129.711 161.299 129.322 161.432C128.934 161.565 128.576 161.773 128.268 162.044C127.961 162.315 127.709 162.645 127.529 163.013C127.348 163.381 127.242 163.781 127.217 164.19C127.192 164.607 127.247 165.023 127.197 165.435C127.183 165.643 127.118 165.845 127.008 166.023C126.897 166.201 126.745 166.348 126.564 166.453C125.997 166.709 125.233 166.328 124.751 166.724C124.324 167.08 124.48 167.773 124.736 168.269C125.035 168.688 125.182 169.196 125.153 169.709C125.144 169.75 125.132 169.79 125.118 169.83C123.956 168.749 123.033 167.436 122.411 165.976C121.788 164.516 121.479 162.942 121.503 161.355C121.483 160.656 121.627 159.962 121.924 159.328C122.074 159.013 122.299 158.739 122.581 158.531C122.862 158.324 123.19 158.189 123.536 158.139C124.129 158.089 124.741 158.355 125.304 158.164C125.997 157.933 126.288 157.136 126.649 156.493C127.095 155.728 127.743 155.099 128.523 154.677C129.302 154.255 130.183 154.055 131.068 154.1C131.705 154.163 132.334 154.289 132.946 154.476L134.141 154.803C134.597 154.91 135.04 155.066 135.462 155.269C136.079 155.623 136.598 156.125 136.973 156.729C137.291 157.215 137.543 157.742 137.721 158.295C137.059 158.329 136.396 158.306 135.738 158.225C136.491 158.691 137.249 159.158 138.002 159.624C138.092 160.372 138.047 161.13 137.872 161.862Z" fill="#2F2E41"/>
<path d="M256.895 49.6048C270.603 49.6048 281.716 38.5004 281.716 24.8024C281.716 11.1044 270.603 0 256.895 0C243.186 0 232.074 11.1044 232.074 24.8024C232.074 38.5004 243.186 49.6048 256.895 49.6048Z" fill="#FF6584"/>
<path d="M312.45 13.0589C311.014 8.2522 306.957 5.11628 302.056 4.42889C302.006 4.42387 301.951 4.43388 301.901 4.42889C301.832 4.40688 301.761 4.3901 301.69 4.37872C294.747 3.53483 287.723 5.06268 281.76 8.71381C280.396 9.56588 278.969 10.3139 277.492 10.9516C272.757 12.9466 267.691 14.0423 262.554 14.1828C262.514 14.1828 262.474 14.1879 262.434 14.1879C259.918 14.3549 257.514 15.2929 255.551 16.874C253.588 18.4551 252.16 20.6025 251.462 23.0236C251.388 23.3197 251.411 23.6316 251.526 23.914C251.642 24.1964 251.845 24.4346 252.105 24.5941C252.854 25.2289 253.741 25.6807 254.696 25.9137C256.76 26.3502 258.828 26.7499 260.902 27.1128C264.954 27.8203 269.026 28.3923 273.119 28.8288C275.83 29.1198 278.547 29.3473 281.268 29.5112C286.882 29.8624 292.521 29.9477 298.145 29.7721C300.926 29.6868 303.608 29.5965 306.159 28.3672C308.013 27.4529 309.596 26.0711 310.753 24.3582C311.844 22.7127 312.561 20.8485 312.854 18.8965C313.147 16.9445 313.01 14.952 312.45 13.0589Z" fill="#F2F2F2"/>
<path d="M215.209 197.828C214.174 194.366 211.252 192.103 207.717 191.606C207.677 191.601 207.642 191.611 207.602 191.606C207.552 191.591 207.502 191.58 207.451 191.571C202.445 190.96 197.379 192.062 193.08 194.697C188.938 197.281 184.112 198.45 179.232 198.64C179.203 198.64 179.175 198.641 179.146 198.645C177.333 198.766 175.601 199.442 174.186 200.582C172.771 201.721 171.742 203.268 171.238 205.013C171.184 205.226 171.2 205.451 171.283 205.655C171.366 205.859 171.512 206.031 171.7 206.147C172.239 206.605 172.879 206.93 173.568 207.095C175.054 207.411 176.55 207.697 178.047 207.963C180.964 208.47 183.906 208.881 186.854 209.197C192.845 209.841 198.873 210.069 204.895 209.88C206.899 209.819 208.832 209.754 210.67 208.866C212.009 208.207 213.152 207.211 213.989 205.976C214.774 204.789 215.291 203.444 215.501 202.037C215.712 200.629 215.612 199.193 215.209 197.828Z" fill="#F2F2F2"/>
<path d="M56.5377 156.684C55.5033 153.222 52.5809 150.959 49.046 150.463C49.0058 150.458 48.9707 150.468 48.9305 150.463C48.881 150.448 48.8307 150.436 48.7799 150.427C43.7737 149.816 38.7081 150.918 34.4091 153.553C30.2666 156.137 25.4411 157.306 20.5605 157.497C20.532 157.496 20.5034 157.498 20.4751 157.502C18.662 157.623 16.9301 158.299 15.515 159.438C14.1 160.577 13.0705 162.125 12.5667 163.869C12.5127 164.083 12.5283 164.308 12.6115 164.512C12.6946 164.716 12.8407 164.888 13.0286 165.003C13.5678 165.462 14.2078 165.787 14.8965 165.952C16.3828 166.268 17.8792 166.554 19.3755 166.82C22.2928 167.326 25.2353 167.738 28.1827 168.054C34.1735 168.698 40.2017 168.926 46.2241 168.736C48.2275 168.676 50.1607 168.611 51.9985 167.723C53.3374 167.064 54.4813 166.068 55.3175 164.833C56.1031 163.645 56.6194 162.301 56.8302 160.893C57.041 159.486 56.9411 158.049 56.5377 156.684Z" fill="#F2F2F2"/>
<path d="M98.1774 371.295C99.8745 373.157 101.521 375.058 103.118 377C79.3771 372.756 56.6709 364.001 36.2303 351.21C35.8035 350.944 35.3817 350.678 34.9599 350.407C23.3614 343.025 12.5967 334.41 2.85413 324.713C4.56135 323.112 5.61581 322.159 5.61581 322.159C29.4416 296.59 32.1129 287.589 55.9387 262.02C63.8622 294.101 97.1781 316.389 114.652 344.442C109.557 347.994 103.983 350.807 98.097 352.796C98.0568 352.841 98.0167 352.891 97.9765 352.936C95.7586 355.492 94.5544 358.771 94.5914 362.154C94.6284 365.536 95.9041 368.788 98.1774 371.295Z" fill="#F2F2F2"/>
<path d="M303.536 280.91C289.267 307.052 269.068 329.489 244.557 346.424C244.034 346.785 243.512 347.146 242.985 347.502C225.623 359.248 206.426 368.023 186.18 373.468C185.207 372.72 184.116 372.141 182.951 371.757V371.747C184.256 369.308 185.562 366.87 186.867 364.431C182.358 369.027 174.495 369.815 169.163 366.212C170.039 364.234 171.291 362.443 172.848 360.939C171.543 361.536 169.514 360.673 168.952 359.168C168.244 357.286 169.047 355.204 169.891 353.378C179.195 333.268 209.679 300.709 210.156 300.203C209.83 300.403 195.911 309.139 187.837 308.491C187.425 306.023 176.715 303.007 175.519 301.753C180.385 290.82 202.95 270.479 202.95 270.479C226.776 244.91 229.448 235.909 253.273 210.34C260.052 237.785 285.409 258.061 303.536 280.91Z" fill="#F2F2F2"/>
<g opacity="0.2">
<path d="M0 99.3716C0.148237 99.1753 0.303593 98.9865 0.454682 98.7932L0.462896 98.7161L0 99.3716Z" fill="black"/>
<path d="M257.772 101.44C256.94 103.419 255.486 105.074 253.63 106.157C251.775 107.239 249.618 107.69 247.484 107.441C246.93 107.375 246.382 107.262 245.847 107.105C239.977 105.359 234.109 103.753 228.242 102.288C220.57 100.362 212.898 98.6674 205.225 97.2056C198.813 95.9814 192.401 94.9193 185.989 94.0195C178.311 92.9408 170.637 92.0945 162.966 91.4807C156.554 90.9639 150.14 90.611 143.725 90.422C136.053 90.1862 128.382 90.1862 120.713 90.422C114.301 90.6127 107.887 90.9656 101.471 91.4807C93.7988 92.0928 86.1264 92.9391 78.4539 94.0195C72.0418 94.9227 65.628 95.9847 59.2125 97.2056C51.54 98.6657 43.8676 100.36 36.1951 102.288C30.3253 103.758 24.4588 105.364 18.5957 107.105C18.0603 107.262 17.5128 107.375 16.9588 107.441C15.5693 107.604 14.1612 107.47 12.827 107.05C11.4928 106.63 10.2628 105.932 9.21786 105.003C8.17294 104.073 7.33679 102.933 6.76441 101.658C6.19204 100.382 5.89641 98.9999 5.89697 97.602V92.9658C17.2199 82.7352 33.2376 77.9937 48.6829 76.3781C67.0506 74.4564 85.7146 76.0971 103.982 73.3726C118.875 71.1498 133.672 66.027 148.626 67.8082C161.656 69.3536 173.531 76.0269 186.38 78.6962C202.499 82.0428 219.516 78.9671 235.488 82.946C241.75 84.5014 247.886 87.2359 252.36 91.8771C254.952 94.5504 256.815 97.8429 257.772 101.44Z" fill="black"/>
</g>
<path d="M131.62 206.072C136.948 206.072 141.267 201.757 141.267 196.433C141.267 191.109 136.948 186.793 131.62 186.793C126.292 186.793 121.973 191.109 121.973 196.433C121.973 201.757 126.292 206.072 131.62 206.072Z" fill="#665DC0"/>
<path d="M130.304 201.45C130.137 201.45 129.973 201.411 129.824 201.336C129.675 201.262 129.545 201.154 129.445 201.021L126.813 197.514C126.728 197.401 126.667 197.273 126.631 197.137C126.596 197 126.588 196.858 126.608 196.718C126.628 196.579 126.675 196.444 126.747 196.323C126.819 196.202 126.914 196.096 127.027 196.011C127.139 195.926 127.268 195.865 127.405 195.83C127.541 195.795 127.684 195.787 127.823 195.808C127.963 195.828 128.097 195.875 128.219 195.947C128.34 196.019 128.446 196.114 128.53 196.227L130.252 198.521L134.675 191.893C134.832 191.656 135.078 191.492 135.357 191.436C135.636 191.38 135.926 191.438 136.163 191.595C136.399 191.753 136.564 191.998 136.62 192.277C136.675 192.556 136.618 192.846 136.46 193.082L131.197 200.972C131.101 201.115 130.973 201.233 130.823 201.316C130.673 201.399 130.505 201.445 130.333 201.449L130.304 201.45Z" fill="white"/>
<path d="M250.236 252.702C249.779 260.203 249.323 267.706 248.87 275.211C248.066 288.467 247.263 301.725 246.46 314.984C245.827 325.466 245.193 335.945 244.557 346.424C244.034 346.785 243.512 347.146 242.985 347.502C243.291 342.5 243.594 337.497 243.894 332.495C244.697 319.234 245.5 305.976 246.304 292.721C247.112 279.38 247.921 266.04 248.729 252.702C248.784 251.734 250.291 251.734 250.236 252.702Z" fill="white"/>
<path d="M200.804 289.657L227.35 267.291L234.798 261.016C235.541 260.391 234.47 259.33 233.733 259.951L207.187 282.317L199.738 288.593C198.996 289.218 200.066 290.278 200.804 289.657Z" fill="white"/>
<path d="M267.423 274.987C269.964 274.879 272.49 275.426 274.759 276.575C277.027 277.725 278.961 279.438 280.376 281.55C280.905 282.357 282.21 281.604 281.677 280.791C280.128 278.453 278.003 276.553 275.506 275.273C273.01 273.993 270.226 273.376 267.423 273.482C266.458 273.527 266.452 275.033 267.423 274.987Z" fill="white"/>
<path d="M56.4745 303.222C69.3555 309.348 79.6716 319.803 85.6193 332.76C86.0232 333.639 87.3219 332.875 86.92 332C82.1906 321.794 74.7954 313.05 65.5126 306.688C62.8829 304.885 60.1151 303.291 57.2349 301.922C56.364 301.508 55.5987 302.806 56.4745 303.222Z" fill="white"/>
<path d="M55.5069 292.757C54.4725 298.502 53.2105 304.2 51.7209 309.851C49.0886 319.832 45.7563 329.615 41.7487 339.128C40.0314 343.212 38.192 347.24 36.2303 351.21C35.8035 350.944 35.3817 350.678 34.96 350.407C39.4484 341.293 43.2972 331.877 46.4787 322.229C49.702 312.463 52.2322 302.482 54.0507 292.36C54.2214 291.407 55.6776 291.813 55.5069 292.757Z" fill="white"/>
<path d="M69.6217 224.452C73.6607 224.452 76.9349 221.181 76.9349 217.145C76.9349 213.109 73.6607 209.837 69.6217 209.837C65.5828 209.837 62.3086 213.109 62.3086 217.145C62.3086 221.181 65.5828 224.452 69.6217 224.452Z" fill="#E6E6E6"/>
<path d="M68.6241 220.948C68.4978 220.948 68.3733 220.919 68.2603 220.862C68.1474 220.806 68.0491 220.724 67.9734 220.623L65.9782 217.965C65.8488 217.792 65.7932 217.576 65.8237 217.362C65.8543 217.149 65.9684 216.956 66.141 216.827C66.3136 216.698 66.5305 216.642 66.7441 216.672C66.9577 216.703 67.1504 216.817 67.2798 216.989L68.5851 218.728L71.9376 213.704C71.9966 213.614 72.0727 213.537 72.1615 213.477C72.2503 213.418 72.3501 213.376 72.4551 213.355C72.5602 213.333 72.6684 213.333 72.7735 213.354C72.8786 213.374 72.9787 213.416 73.0678 213.475C73.157 213.534 73.2335 213.611 73.293 213.7C73.3525 213.789 73.3939 213.889 73.4146 213.994C73.4354 214.099 73.4352 214.207 73.414 214.312C73.3929 214.417 73.3511 214.517 73.2913 214.605L69.301 220.586C69.2288 220.694 69.1317 220.784 69.0179 220.847C68.9041 220.91 68.7768 220.944 68.6467 220.948L68.6241 220.948Z" fill="white"/>
<path d="M83.7055 224.452C87.7444 224.452 91.0186 221.181 91.0186 217.145C91.0186 213.109 87.7444 209.837 83.7055 209.837C79.6665 209.837 76.3923 213.109 76.3923 217.145C76.3923 221.181 79.6665 224.452 83.7055 224.452Z" fill="#E6E6E6"/>
<path d="M82.7078 220.948C82.5815 220.948 82.457 220.919 82.344 220.862C82.2311 220.806 82.1328 220.724 82.0571 220.623L80.062 217.965C79.9325 217.792 79.877 217.576 79.9075 217.362C79.938 217.149 80.0521 216.956 80.2247 216.827C80.3973 216.698 80.6142 216.642 80.8278 216.672C81.0414 216.703 81.2341 216.817 81.3636 216.989L82.6688 218.728L86.0213 213.704C86.0803 213.614 86.1564 213.537 86.2452 213.477C86.334 213.418 86.4338 213.376 86.5389 213.355C86.6439 213.333 86.7521 213.333 86.8572 213.354C86.9624 213.374 87.0624 213.416 87.1515 213.475C87.2407 213.534 87.3172 213.611 87.3768 213.7C87.4363 213.789 87.4776 213.889 87.4984 213.994C87.5191 214.099 87.5189 214.207 87.4978 214.312C87.4766 214.417 87.4349 214.517 87.375 214.605L83.3848 220.586C83.3126 220.694 83.2155 220.784 83.1016 220.847C82.9878 220.91 82.8605 220.944 82.7305 220.948L82.7078 220.948Z" fill="white"/>
<path d="M76.4733 212.661C80.5122 212.661 83.7864 209.39 83.7864 205.354C83.7864 201.318 80.5122 198.046 76.4733 198.046C72.4344 198.046 69.1602 201.318 69.1602 205.354C69.1602 209.39 72.4344 212.661 76.4733 212.661Z" fill="#E6E6E6"/>
<path d="M75.4757 209.157C75.3494 209.157 75.2248 209.128 75.1119 209.071C74.9989 209.015 74.9007 208.933 74.8249 208.832L72.8298 206.174C72.7004 206.001 72.6448 205.785 72.6753 205.571C72.7058 205.358 72.8199 205.165 72.9925 205.036C73.1651 204.906 73.3821 204.851 73.5956 204.881C73.8092 204.912 74.0019 205.026 74.1314 205.198L75.4367 206.937L78.7891 201.912C78.9093 201.734 79.0952 201.611 79.3062 201.569C79.5172 201.527 79.7361 201.571 79.9151 201.69C80.094 201.809 80.2185 201.995 80.2612 202.205C80.3038 202.416 80.2613 202.635 80.1428 202.814L76.1526 208.795C76.0804 208.903 75.9833 208.993 75.8695 209.056C75.7556 209.119 75.6283 209.153 75.4983 209.157L75.4757 209.157Z" fill="white"/>
<path d="M97.62 205.854L96.5401 205.962L91.2111 220.035H62.2823L56.9533 205.962L55.8733 205.854C55.5286 205.82 55.1805 205.858 54.8514 205.966C54.5223 206.074 54.2195 206.25 53.9627 206.482C53.7058 206.715 53.5005 206.998 53.36 207.315C53.2194 207.631 53.1468 207.974 53.1469 208.32V240.22C53.1468 241.465 53.3923 242.698 53.8693 243.849C54.3462 244.999 55.0453 246.045 55.9266 246.925C56.8078 247.806 57.8541 248.505 59.0055 248.981C60.157 249.458 61.3911 249.703 62.6374 249.703H90.8559C92.1023 249.703 93.3364 249.458 94.4878 248.981C95.6393 248.505 96.6855 247.806 97.5668 246.925C98.4481 246.045 99.1471 244.999 99.6241 243.849C100.101 242.698 100.347 241.465 100.347 240.22V208.32C100.347 207.974 100.274 207.631 100.133 207.315C99.9929 206.998 99.7876 206.715 99.5307 206.482C99.2738 206.25 98.9711 206.074 98.642 205.966C98.3129 205.858 97.9648 205.82 97.62 205.854Z" fill="#F2F2F2"/>
<path d="M138.396 173.999C138.04 172.95 136.662 172.751 135.553 172.755C133.081 172.762 130.611 172.867 128.144 173.07L128.392 172.784C127.736 172.508 127.015 172.427 126.314 172.551C125.634 172.744 125.075 173.525 125.382 174.161C125.613 174.639 126.258 174.943 126.212 175.472C126.134 176.367 124.4 176.07 124.13 176.927C124.093 177.097 124.11 177.274 124.178 177.435C124.246 177.595 124.362 177.731 124.51 177.823C124.81 178 125.147 178.107 125.495 178.135C129.164 178.667 132.91 178.184 136.324 176.739C136.921 176.523 137.465 176.183 137.922 175.742C138.148 175.519 138.31 175.24 138.393 174.934C138.477 174.628 138.478 174.305 138.396 173.999Z" fill="#E6E6E6"/>
</g>
<defs>
<clipPath id="clip0_739_725">
<rect width="313" height="377" fill="white"/>
</clipPath>
</defs>
</svg>
