<svg width="180" height="32" viewBox="0 0 180 32" fill="none" xmlns="http://www.w3.org/2000/svg">
<g clip-path="url(#clip0_731_490)">
<path d="M16.75 0C25.5863 0 32.75 7.16375 32.75 16C32.75 24.8363 25.5863 32 16.75 32C7.91375 32 0.75 24.8363 0.75 16C0.75 7.16375 7.91375 0 16.75 0Z" fill="#665DC0"/>
<path d="M10.6732 13.7449L12.6076 15.6793L14.542 13.7449C15.0551 13.2318 15.3376 12.5449 15.3376 11.8105C15.3376 11.0762 15.0551 10.3893 14.542 9.87617C14.0088 9.34305 13.3082 9.07617 12.6076 9.07617C11.907 9.07617 11.2063 9.34305 10.6732 9.87617C9.60633 10.943 9.60633 12.6787 10.6732 13.7449Z" fill="#C2BEE6"/>
<path d="M6.50694 14.043C6.28256 14.2692 5.75444 14.898 5.70944 15.8449C5.65569 16.9542 6.30756 17.7086 6.50819 17.9136L10.6738 22.078C11.1869 22.5911 11.8738 22.8736 12.6082 22.8736C13.3426 22.8736 14.0294 22.5911 14.5426 22.078C15.0557 21.5649 15.3382 20.878 15.3382 20.1436C15.3382 19.4092 15.0557 18.7224 14.5426 18.2092C13.8476 17.5149 13.1532 16.8205 12.4588 16.1261C11.7644 15.4317 11.0701 14.7374 10.3751 14.043C10.1063 13.7724 9.48006 13.0217 9.45194 11.8886C9.44381 11.5567 9.48881 11.2549 9.56444 10.9849L6.50631 14.043H6.50694Z" fill="#F0EFF9"/>
<path d="M20.9287 16.2751L18.9944 18.2095C18.4812 18.7226 18.1987 19.4095 18.1987 20.1439C18.1987 20.8783 18.4812 21.5651 18.9944 22.0783C19.5075 22.5914 20.1944 22.8739 20.9287 22.8739C21.6631 22.8739 22.35 22.5914 22.8631 22.0783C23.3762 21.5651 23.6587 20.8783 23.6587 20.1439C23.6587 19.4095 23.3762 18.7226 22.8631 18.2095L20.9287 16.2751Z" fill="#C2BEE6"/>
<path d="M27.0294 17.9107C27.2538 17.6844 27.7819 17.0551 27.8269 16.1088C27.8806 14.9988 27.2288 14.2451 27.0281 14.0407L22.8619 9.87568C22.3288 9.34256 21.6281 9.07568 20.9275 9.07568C20.2269 9.07568 19.5263 9.34256 18.9931 9.87568C18.48 10.3888 18.1975 11.0757 18.1975 11.8101C18.1975 12.5444 18.48 13.2313 18.9931 13.7444C19.7056 14.4563 20.4181 15.1688 21.1306 15.8813C21.8069 16.5576 22.4831 17.2338 23.16 17.9101C23.4288 18.1807 24.055 18.9307 24.0831 20.0644C24.0913 20.3963 24.0463 20.6982 23.9706 20.9682L27.0288 17.9101L27.0294 17.9107Z" fill="#F0EFF9"/>
</g>
<path d="M42.4076 12.2473C42.8854 11.7551 43.447 11.3629 44.0756 11.0817C44.6959 10.8059 45.3665 10.6652 46.0733 10.6652C46.864 10.6652 47.4955 10.7626 47.9537 10.9519C48.4287 11.1493 48.8981 11.4414 49.3479 11.8173C49.3563 11.8227 49.3619 11.8281 49.3703 11.8335C49.7251 12.1012 50.1051 12.2175 50.5018 12.1905C50.8846 12.1607 51.2171 12.0201 51.4909 11.7767C51.7871 11.5117 51.9435 11.1628 51.9435 10.7653C51.9435 10.6057 51.9296 10.4678 51.8988 10.3407C51.8625 10.1893 51.7927 10.0432 51.6921 9.90262C51.5971 9.77011 51.4714 9.64571 51.3373 9.54836C50.541 8.91555 49.7307 8.45312 48.9288 8.17187C48.1269 7.89333 47.1658 7.75 46.0733 7.75C44.8999 7.75 43.7962 7.96905 42.7904 8.39903C41.7901 8.82902 40.9016 9.42937 40.1501 10.1839C39.3985 10.9384 38.8061 11.8281 38.3842 12.8287C37.9623 13.8293 37.75 14.9245 37.75 16.0792C37.75 17.234 37.9623 18.3509 38.3842 19.3569C38.8033 20.3629 39.3985 21.258 40.1501 22.0125C40.9016 22.7697 41.7957 23.3673 42.8044 23.7892C43.8158 24.2138 44.9166 24.4274 46.0733 24.4274C47.0457 24.4274 47.9844 24.2733 48.8673 23.9677C49.7475 23.6648 50.5829 23.2078 51.3512 22.6155C51.368 22.602 51.3847 22.5885 51.3987 22.575C51.558 22.4208 51.6781 22.2478 51.7591 22.0612C51.8402 21.8719 51.8821 21.6744 51.8821 21.4716C51.8821 21.0443 51.748 20.6901 51.4853 20.4251C51.2311 20.1709 50.9042 20.0194 50.5354 19.9897C50.1666 19.9599 49.7978 20.0681 49.4429 20.3169C48.9232 20.6901 48.3756 20.9821 47.814 21.1904C47.272 21.3932 46.6852 21.496 46.0733 21.496C45.3637 21.496 44.6903 21.358 44.07 21.0849C43.4442 20.8118 42.8826 20.4224 42.4048 19.9329C41.927 19.4407 41.5471 18.8593 41.2788 18.2075C41.0106 17.5531 40.8765 16.8392 40.8765 16.0792C40.8765 15.3193 41.0134 14.6243 41.2788 13.9699C41.5471 13.3155 41.927 12.7394 42.4076 12.2473Z" fill="#29254D"/>
<path d="M63.129 12.8049C62.1992 12.2765 61.1273 12.0081 59.9388 12.0081C58.7503 12.0081 57.6585 12.2765 56.7288 12.8049C55.7962 13.3362 55.0541 14.0765 54.5196 15.009C53.9879 15.9387 53.7178 17.021 53.7178 18.2276C53.7178 19.4342 53.9879 20.4967 54.5196 21.4264C55.0541 22.3589 55.7962 23.1021 56.7288 23.6305C57.6585 24.159 58.739 24.4274 59.9388 24.4274C61.1387 24.4274 62.2191 24.159 63.1489 23.6305C64.0815 23.0993 64.8207 22.3561 65.3495 21.4236C65.8727 20.4939 66.1371 19.4201 66.1371 18.2276C66.1371 17.0351 65.867 15.9387 65.3353 15.009C64.8008 14.0765 64.0587 13.3334 63.1261 12.8049H63.129ZM59.9388 21.4688C59.3275 21.4688 58.8072 21.336 58.3494 21.0619C57.886 20.785 57.5334 20.4176 57.2662 19.9316C56.9989 19.4484 56.8653 18.8747 56.8653 18.2304C56.8653 17.5862 57.0017 17.0069 57.269 16.5152C57.5363 16.0263 57.8888 15.6533 58.3523 15.3792C58.8129 15.1051 59.3332 14.9723 59.9417 14.9723C60.5501 14.9723 61.0733 15.1051 61.531 15.3792C61.9917 15.6533 62.3414 16.0235 62.6001 16.5124C62.8617 17.0041 62.9953 17.5833 62.9953 18.2304C62.9953 18.8776 62.8617 19.454 62.603 19.9372C62.3414 20.4204 61.9917 20.7878 61.531 21.0619C61.0704 21.336 60.5501 21.4688 59.9388 21.4688Z" fill="#29254D"/>
<path d="M78.721 7.75C78.2773 7.75 77.882 7.89878 77.5777 8.18257C77.2706 8.47187 77.1085 8.86036 77.1085 9.31222V13.3844C76.8298 13.1833 76.5283 13.007 76.2069 12.8554C75.4476 12.4945 74.6144 12.3127 73.7242 12.3127C72.6236 12.3127 71.6197 12.5854 70.7381 13.1227C69.865 13.6545 69.1683 14.3846 68.6649 15.2938C68.1644 16.1975 67.9113 17.2308 67.9113 18.3604C67.9113 19.49 68.1871 20.5398 68.736 21.4545C69.282 22.3665 70.0328 23.0994 70.9685 23.6284C71.9069 24.1574 72.9706 24.4274 74.1309 24.4274C75.2912 24.4274 76.3548 24.1574 77.2848 23.6284C78.2119 23.0994 78.9598 22.3693 79.5059 21.4573C80.0519 20.5425 80.3306 19.5011 80.3306 18.3632V9.31222C80.3306 8.86587 80.1742 8.47738 79.8756 8.18808C79.5798 7.90154 79.1788 7.75 78.7153 7.75H78.721ZM74.1337 21.5372C73.5507 21.5372 73.0417 21.4049 72.5753 21.1322C72.106 20.8566 71.7448 20.4874 71.469 19.9998C71.196 19.5148 71.0566 18.9638 71.0566 18.3604C71.0566 17.757 71.1931 17.1949 71.4661 16.7238C71.7392 16.2499 72.1032 15.8834 72.5753 15.6079C73.0417 15.3352 73.5507 15.2001 74.1337 15.2001C74.7167 15.2001 75.24 15.3324 75.7007 15.6052C76.1643 15.8807 76.5198 16.2444 76.7899 16.7183C77.0573 17.1894 77.1909 17.7405 77.1909 18.3576C77.1909 18.9748 77.0544 19.5176 76.7871 20.0025C76.5198 20.4874 76.1643 20.8566 75.7007 21.1322C75.2429 21.4049 74.731 21.5372 74.1337 21.5372Z" fill="#29254D"/>
<path d="M91.758 12.7934C90.857 12.2708 89.7787 12.0081 88.5443 12.0081C87.3099 12.0081 86.1836 12.2764 85.2134 12.8076C84.2433 13.3387 83.4714 14.0817 82.9248 15.0168C82.3812 15.9463 82.1049 17.0255 82.1049 18.229C82.1049 19.4325 82.3992 20.5033 82.9759 21.4328C83.5555 22.3651 84.3665 23.1081 85.3907 23.6364C86.4058 24.1618 87.5772 24.4274 88.8687 24.4274C89.5955 24.4274 90.3614 24.3003 91.1453 24.0517C91.9352 23.8002 92.611 23.4697 93.1456 23.0713C93.6592 22.7041 93.7463 22.2633 93.7283 21.9611C93.7043 21.5627 93.506 21.2039 93.1276 20.8903C92.8273 20.653 92.4548 20.5287 92.0614 20.5428C91.6859 20.5541 91.3375 20.6671 91.0162 20.8903C90.7759 21.0598 90.4485 21.2124 90.04 21.348C89.6376 21.4808 89.2441 21.5486 88.8687 21.5486C88.1569 21.5486 87.5201 21.4017 86.9795 21.1135C86.4329 20.8225 86.0184 20.4383 85.709 19.9382C85.6249 19.7998 85.5528 19.6586 85.4898 19.506H92.9294C93.3709 19.506 93.7613 19.3647 94.0587 19.0935C94.362 18.8167 94.5242 18.455 94.5242 18.0454C94.5242 16.8927 94.2899 15.8559 93.8244 14.9603C93.3499 14.045 92.6531 13.3189 91.749 12.7934H91.758ZM88.5443 14.8869C89.151 14.8869 89.6436 15.0084 90.052 15.2626C90.4665 15.5197 90.7789 15.8616 91.0071 16.3079C91.0792 16.4464 91.1393 16.5933 91.1904 16.7487H85.5198C85.5588 16.6526 85.6009 16.5594 85.6459 16.4718C85.9012 15.9774 86.2617 15.5988 86.7512 15.3135C87.2378 15.031 87.8385 14.8897 88.5443 14.8897V14.8869Z" fill="#29254D"/>
<path d="M108.052 10.0977C107.27 9.35019 106.339 8.76327 105.283 8.35907C104.23 7.95487 103.051 7.75 101.776 7.75H97.9733C97.5181 7.75 97.1066 7.90504 96.7915 8.19573C96.4676 8.49196 96.2983 8.88785 96.2983 9.34189V22.8355C96.2983 23.273 96.4676 23.6633 96.7857 23.9651C97.1037 24.2668 97.5152 24.4274 97.9762 24.4274H101.778C103.054 24.4274 104.233 24.2225 105.286 23.8183C106.342 23.4141 107.273 22.8272 108.055 22.0797C108.837 21.3322 109.444 20.4352 109.865 19.4192C110.282 18.4087 110.492 17.2847 110.492 16.0776C110.492 14.8706 110.282 13.7493 109.862 12.7444C109.441 11.7366 108.834 10.8452 108.052 10.0949V10.0977ZM107.221 16.0776C107.221 17.1352 106.984 18.0793 106.515 18.8904C106.048 19.6961 105.403 20.3356 104.594 20.7952C103.786 21.252 102.838 21.4845 101.773 21.4845H99.6454V10.6901H101.773C102.838 10.6901 103.789 10.9199 104.597 11.3712C105.406 11.8225 106.051 12.4564 106.515 13.2538C106.981 14.0566 107.221 15.0062 107.221 16.0749V16.0776Z" fill="#29254D"/>
<path d="M121.919 12.7934C121.018 12.2708 119.94 12.0081 118.706 12.0081C117.471 12.0081 116.345 12.2764 115.375 12.8076C114.405 13.3387 113.633 14.0817 113.086 15.0168C112.542 15.9463 112.266 17.0255 112.266 18.229C112.266 19.4325 112.56 20.5033 113.137 21.4328C113.717 22.3651 114.528 23.1081 115.552 23.6364C116.567 24.1618 117.738 24.4274 119.03 24.4274C119.757 24.4274 120.523 24.3003 121.307 24.0517C122.096 23.8002 122.772 23.4697 123.307 23.0713C123.82 22.7041 123.908 22.2633 123.89 21.9611C123.866 21.5627 123.667 21.2039 123.289 20.8903C122.989 20.653 122.616 20.5287 122.223 20.5428C121.847 20.5541 121.499 20.6671 121.177 20.8903C120.937 21.0598 120.61 21.2124 120.201 21.348C119.799 21.4808 119.405 21.5486 119.03 21.5486C118.318 21.5486 117.681 21.4017 117.141 21.1135C116.594 20.8225 116.18 20.4383 115.87 19.9382C115.786 19.7998 115.714 19.6586 115.651 19.506H123.091C123.532 19.506 123.923 19.3647 124.22 19.0935C124.523 18.8167 124.685 18.455 124.685 18.0454C124.685 16.8927 124.451 15.8559 123.986 14.9603C123.511 14.045 122.814 13.3189 121.91 12.7934H121.919ZM118.706 14.8869C119.312 14.8869 119.805 15.0084 120.213 15.2626C120.628 15.5197 120.94 15.8616 121.168 16.3079C121.24 16.4464 121.301 16.5933 121.352 16.7487H115.681C115.72 16.6526 115.759 16.5594 115.807 16.4718C116.063 15.9774 116.423 15.5988 116.912 15.3135C117.399 15.031 118 14.8897 118.706 14.8897V14.8869Z" fill="#29254D"/>
<path d="M134.649 17.5017C134.015 17.16 133.19 16.8916 132.128 16.6741C131.444 16.5329 130.927 16.3889 130.588 16.2476C130.215 16.0923 130.115 15.968 130.09 15.9313C130.023 15.8268 129.99 15.7166 129.99 15.5811C129.99 15.4653 130.012 15.3325 130.29 15.1941C130.618 15.0303 131.038 14.9455 131.536 14.9455C131.983 14.9455 132.381 14.9992 132.711 15.1037C133.014 15.1997 133.304 15.3805 133.576 15.6488C133.854 15.9143 134.199 16.0838 134.596 16.1573C135.033 16.2392 135.438 16.1573 135.791 15.9115C136.136 15.6488 136.331 15.2958 136.353 14.8919C136.367 14.6235 136.311 14.2196 135.969 13.8242C135.511 13.2508 134.891 12.7989 134.129 12.4769C133.384 12.1662 132.525 12.0081 131.575 12.0081C130.835 12.0081 130.112 12.1323 129.429 12.3752C128.714 12.6294 128.119 13.0249 127.658 13.5474C127.166 14.1067 126.916 14.81 126.916 15.6432C126.916 16.5951 127.285 17.4085 128.016 18.061C128.706 18.6767 129.748 19.1173 131.216 19.4139C132.4 19.6286 132.912 19.8743 133.134 20.0438C133.451 20.2839 133.487 20.4844 133.481 20.6285C133.476 20.7725 133.431 20.9646 133.112 21.1651C132.798 21.3656 132.3 21.4673 131.636 21.4673C131.102 21.4673 130.615 21.3713 130.187 21.1792C129.656 20.942 129.406 20.733 129.278 20.5889C129 20.2867 128.664 20.1087 128.272 20.0579C127.858 20.0042 127.452 20.137 127.074 20.4449C126.729 20.7132 126.521 21.0804 126.471 21.5069C126.418 21.9531 126.554 22.3655 126.879 22.7158C127.377 23.2213 128.066 23.6365 128.934 23.9557C129.784 24.2692 130.718 24.4274 131.714 24.4274C132.709 24.4274 133.615 24.2608 134.318 23.9275C135.044 23.5857 135.605 23.114 135.989 22.5265C136.375 21.9334 136.573 21.2611 136.573 20.5268C136.573 19.88 136.417 19.2981 136.108 18.7953C135.803 18.2982 135.311 17.8661 134.646 17.5074L134.649 17.5017Z" fill="#29254D"/>
<path d="M140.121 7.75C139.645 7.75 139.212 7.93136 138.87 8.27306C138.523 8.62001 138.347 9.04056 138.347 9.52419C138.347 10.0078 138.528 10.4336 138.87 10.7753C139.212 11.117 139.645 11.2984 140.121 11.2984C140.597 11.2984 141.03 11.117 141.372 10.7753C141.714 10.4336 141.895 9.99994 141.895 9.52419C141.895 9.04845 141.719 8.62001 141.372 8.27306C141.03 7.93136 140.597 7.75 140.121 7.75Z" fill="#29254D"/>
<path d="M140.121 12.5403C139.63 12.5403 139.195 12.6883 138.863 12.9705C138.525 13.2582 138.347 13.6446 138.347 14.094V22.8737C138.347 23.3066 138.522 23.6903 138.857 23.9807C139.192 24.2739 139.627 24.4274 140.121 24.4274C140.615 24.4274 141.078 24.2712 141.404 23.9752C141.726 23.6848 141.895 23.3039 141.895 22.8737V14.094C141.895 13.6501 141.723 13.2637 141.398 12.976C141.072 12.691 140.631 12.5403 140.121 12.5403Z" fill="#29254D"/>
<path d="M153.417 12.8048C152.454 12.2765 151.344 12.0081 150.113 12.0081C148.882 12.0081 147.751 12.2765 146.788 12.8048C145.822 13.336 145.053 14.0763 144.5 15.0087C143.949 15.9383 143.669 17.0204 143.669 18.2269C143.669 19.4334 143.928 20.4845 144.438 21.4112C144.953 22.3464 145.669 23.0895 146.567 23.6207C147.471 24.1547 148.52 24.4288 149.686 24.4288C150.776 24.4288 151.756 24.1547 152.601 23.6123C152.825 23.4682 153.037 23.3071 153.238 23.1348C153.176 23.6405 153.043 24.0813 152.834 24.4542C152.546 24.9713 152.174 25.3499 151.694 25.6127C151.208 25.8783 150.687 26.0083 150.11 26.0083C149.465 26.0083 148.885 25.8952 148.384 25.6748C147.884 25.4516 147.483 25.1521 147.165 24.7707C146.906 24.4401 146.564 24.231 146.143 24.1491C145.713 24.0643 145.286 24.1491 144.897 24.4006C144.544 24.6323 144.317 24.96 144.238 25.3471C144.182 25.6268 144.188 26.0563 144.556 26.5197C145.218 27.3193 146.043 27.9352 147 28.3506C147.948 28.7631 148.979 28.9693 150.063 28.9693C151.326 28.9693 152.46 28.6811 153.432 28.1132C154.401 27.5481 155.169 26.774 155.711 25.8161C156.25 24.8611 156.524 23.7903 156.524 22.6262V18.2326C156.524 17.0261 156.244 15.9439 155.694 15.0144C155.14 14.082 154.371 13.3389 153.405 12.8105L153.417 12.8048ZM151.762 21.0609C151.285 21.3349 150.746 21.4677 150.116 21.4677C149.486 21.4677 148.944 21.3349 148.47 21.0609C147.99 20.784 147.624 20.4167 147.348 19.9307C147.071 19.4475 146.932 18.8739 146.932 18.2297C146.932 17.5855 147.074 17.0063 147.351 16.5147C147.627 16.0259 147.993 15.6529 148.473 15.3788C148.95 15.1048 149.489 14.972 150.119 14.972C150.749 14.972 151.291 15.1048 151.765 15.3788C152.242 15.6529 152.604 16.023 152.872 16.5119C153.143 17.0035 153.282 17.5827 153.282 18.2297C153.282 18.8768 153.143 19.4532 152.875 19.9363C152.604 20.4195 152.242 20.7868 151.765 21.0609H151.762Z" fill="#29254D"/>
<path d="M169.051 14.6671C168.582 13.7997 167.931 13.1306 167.112 12.6771C166.308 12.232 165.39 12.0081 164.383 12.0081C163.376 12.0081 162.525 12.232 161.74 12.6686C161.607 12.7423 161.479 12.8217 161.355 12.9095C161.288 12.782 161.202 12.6657 161.102 12.5608C160.814 12.266 160.423 12.1101 159.971 12.1101C159.518 12.1101 159.15 12.2632 158.856 12.5552C158.556 12.85 158.395 13.2525 158.395 13.7175V22.8201C158.395 23.268 158.55 23.6648 158.847 23.9653C159.141 24.2687 159.53 24.4274 159.968 24.4274C160.406 24.4274 160.816 24.2658 161.105 23.9568C161.391 23.6563 161.54 23.2623 161.54 22.8172V17.0625C161.54 16.6742 161.637 16.3453 161.84 16.0505C162.053 15.7387 162.339 15.4949 162.714 15.3021C163.085 15.1122 163.512 15.0158 163.984 15.0158C164.508 15.0158 164.971 15.115 165.365 15.3135C165.742 15.5034 166.033 15.7869 166.261 16.1837C166.488 16.5835 166.605 17.1249 166.605 17.7968V22.8172C166.605 23.2651 166.76 23.662 167.057 23.9625C167.351 24.2658 167.739 24.4246 168.177 24.4246C168.616 24.4246 169.004 24.2658 169.298 23.9625C169.595 23.6592 169.75 23.2651 169.75 22.8172V17.7968C169.75 16.575 169.514 15.5232 169.051 14.6643V14.6671Z" fill="#29254D"/>
<defs>
<clipPath id="clip0_731_490">
<rect width="32" height="32" fill="white" transform="translate(0.75)"/>
</clipPath>
</defs>
</svg>
