<svg width="895" height="234" viewBox="0 0 895 234" fill="none" xmlns="http://www.w3.org/2000/svg">
<path d="M218.256 130.931L216.592 132.596C212.983 136.206 208.089 138.233 202.986 138.233C197.883 138.233 192.989 136.206 189.381 132.596L155.324 98.5222C151.716 94.9123 149.689 90.0165 149.689 84.9116C149.689 79.8068 151.716 74.9109 155.324 71.3011L156.986 69.6386C158.773 67.8509 160.894 66.4329 163.229 65.4654C165.564 64.498 168.066 64 170.593 64C173.12 64 175.622 64.498 177.957 65.4654C180.292 66.4329 182.413 67.8509 184.2 69.6386L218.254 103.705C221.862 107.315 223.889 112.211 223.889 117.316C223.889 122.42 221.862 127.316 218.254 130.926" fill="#C2BEE6"/>
<path d="M185.03 164.102L217.422 131.698C219.318 129.802 220.822 127.55 221.848 125.073C222.874 122.595 223.402 119.939 223.402 117.257C223.402 114.575 222.874 111.919 221.848 109.441C220.822 106.963 219.318 104.711 217.422 102.815C217.119 102.512 216.809 102.224 216.491 101.946L189.478 74.9203C192.768 78.6511 194.584 83.4553 194.584 88.4307C194.584 93.406 192.768 98.2102 189.478 101.941C189.16 102.221 188.844 102.509 188.544 102.815L156.157 135.219C152.417 139.067 150.342 144.234 150.38 149.601C150.418 154.968 152.566 160.104 156.36 163.899C160.154 167.695 165.288 169.844 170.653 169.882C176.018 169.92 181.183 167.843 185.03 164.102Z" fill="#665DC0"/>
<path d="M70.5252 103.074L72.1902 101.409C73.9774 99.6215 76.0993 98.2035 78.4346 97.2361C80.7699 96.2686 83.2729 95.7707 85.8007 95.7707C88.3285 95.7707 90.8315 96.2686 93.1668 97.2361C95.5021 98.2035 97.624 99.6215 99.4112 101.409L133.478 135.478C137.087 139.087 139.115 143.983 139.115 149.087C139.115 154.192 137.087 159.087 133.478 162.696L131.815 164.362C130.028 166.149 127.906 167.567 125.571 168.535C123.235 169.502 120.732 170 118.205 170C115.677 170 113.174 169.502 110.838 168.535C108.503 167.567 106.381 166.149 104.594 164.362L70.5252 130.295C66.9164 126.685 64.8891 121.79 64.8891 116.686C64.8891 111.582 66.9164 106.686 70.5252 103.077" fill="#C2BEE6"/>
<path d="M103.275 69.9081L70.8715 102.312C67.041 106.143 64.8891 111.338 64.8891 116.755C64.8891 122.172 67.041 127.367 70.8715 131.198C71.1745 131.499 71.4849 131.786 71.8004 132.067L98.8262 159.09C95.535 155.359 93.7189 150.555 93.7189 145.58C93.7189 140.605 95.535 135.8 98.8262 132.069C99.1442 131.789 99.4596 131.501 99.7626 131.198L132.154 98.7942C135.952 94.9568 138.076 89.772 138.062 84.373C138.048 78.9741 135.897 73.8002 132.079 69.9826C128.262 66.1649 123.088 64.014 117.689 64.0001C112.29 63.9861 107.105 66.1102 103.268 69.9081" fill="#665DC0"/>
<path d="M290.946 146.032C283.227 146.032 276.596 144.486 271.052 141.395C265.579 138.234 261.368 133.808 258.421 128.117C255.474 122.357 254 115.577 254 107.779C254 99.9813 255.474 93.2371 258.421 87.5467C261.368 81.8562 265.579 77.4654 271.052 74.3743C276.596 71.213 283.227 69.6323 290.946 69.6323C294.806 69.6323 298.595 70.124 302.314 71.1076C306.033 72.0911 309.296 73.4962 312.103 75.3227C313.928 76.517 315.015 77.9572 315.366 79.6432C315.717 81.2591 315.507 82.7695 314.735 84.1745C313.963 85.5093 312.805 86.4226 311.261 86.9144C309.717 87.3359 307.998 86.9144 306.103 85.6498C303.928 84.2448 301.577 83.2261 299.051 82.5939C296.525 81.9616 293.963 81.6454 291.367 81.6454C283.859 81.6454 278.139 83.9287 274.21 88.4951C270.28 92.9912 268.315 99.4193 268.315 107.779C268.315 116.139 270.28 122.603 274.21 127.169C278.139 131.735 283.859 134.019 291.367 134.019C294.034 134.019 296.665 133.703 299.262 133.07C301.858 132.368 304.314 131.314 306.63 129.909C308.524 128.715 310.209 128.328 311.682 128.75C313.156 129.171 314.243 130.049 314.945 131.384C315.717 132.649 315.963 134.054 315.682 135.599C315.401 137.145 314.454 138.515 312.84 139.709C310.033 141.746 306.665 143.327 302.735 144.451C298.876 145.505 294.946 146.032 290.946 146.032Z" fill="#29254D"/>
<path d="M346.474 146.032C341.141 146.032 336.509 144.943 332.579 142.765C328.65 140.587 325.597 137.496 323.422 133.492C321.246 129.417 320.159 124.64 320.159 119.16C320.159 113.681 321.246 108.939 323.422 104.934C325.597 100.93 328.65 97.8386 332.579 95.6608C336.509 93.483 341.141 92.3941 346.474 92.3941C351.807 92.3941 356.438 93.483 360.368 95.6608C364.298 97.8386 367.35 100.93 369.525 104.934C371.701 108.939 372.789 113.681 372.789 119.16C372.789 124.64 371.701 129.417 369.525 133.492C367.35 137.496 364.298 140.587 360.368 142.765C356.438 144.943 351.807 146.032 346.474 146.032ZM346.474 136.021C350.403 136.021 353.561 134.616 355.947 131.806C358.333 128.925 359.526 124.71 359.526 119.16C359.526 113.54 358.333 109.36 355.947 106.62C353.561 103.81 350.403 102.405 346.474 102.405C342.544 102.405 339.386 103.81 337 106.62C334.614 109.36 333.422 113.54 333.422 119.16C333.422 124.71 334.614 128.925 337 131.806C339.386 134.616 342.544 136.021 346.474 136.021Z" fill="#29254D"/>
<path d="M403.437 146.032C398.946 146.032 394.981 144.943 391.543 142.765C388.174 140.587 385.543 137.496 383.648 133.492C381.754 129.417 380.806 124.64 380.806 119.16C380.806 113.61 381.754 108.868 383.648 104.934C385.543 100.93 388.174 97.8386 391.543 95.6608C394.981 93.483 398.946 92.3941 403.437 92.3941C407.086 92.3941 410.384 93.202 413.331 94.8178C416.279 96.4336 418.489 98.5763 419.963 101.246V76.4819C419.963 72.056 422.138 69.843 426.489 69.843C430.91 69.843 433.12 72.056 433.12 76.4819V139.077C433.12 143.573 430.945 145.821 426.594 145.821C422.243 145.821 420.068 143.573 420.068 139.077V136.864C418.594 139.674 416.384 141.922 413.437 143.608C410.489 145.224 407.156 146.032 403.437 146.032ZM407.121 136.021C411.051 136.021 414.209 134.616 416.595 131.806C418.98 128.925 420.173 124.71 420.173 119.16C420.173 113.54 418.98 109.36 416.595 106.62C414.209 103.81 411.051 102.405 407.121 102.405C403.191 102.405 400.034 103.81 397.648 106.62C395.262 109.36 394.069 113.54 394.069 119.16C394.069 124.71 395.262 128.925 397.648 131.806C400.034 134.616 403.191 136.021 407.121 136.021Z" fill="#29254D"/>
<path d="M472.13 146.032C466.306 146.032 461.289 144.943 457.078 142.765C452.868 140.587 449.605 137.496 447.289 133.492C445.044 129.487 443.921 124.745 443.921 119.266C443.921 113.926 445.009 109.255 447.184 105.25C449.429 101.246 452.482 98.1197 456.341 95.8716C460.271 93.5532 464.727 92.3941 469.709 92.3941C477.007 92.3941 482.762 94.7124 486.972 99.3491C491.253 103.986 493.393 110.308 493.393 118.317C493.393 120.917 491.709 122.216 488.34 122.216H456.552C457.534 131.419 462.797 136.021 472.341 136.021C474.165 136.021 476.2 135.81 478.446 135.389C480.762 134.897 482.937 134.089 484.972 132.965C486.797 131.911 488.34 131.595 489.603 132.016C490.867 132.368 491.744 133.105 492.235 134.229C492.796 135.353 492.866 136.618 492.445 138.023C492.095 139.358 491.112 140.517 489.498 141.501C487.042 143.046 484.2 144.205 480.972 144.978C477.814 145.681 474.867 146.032 472.13 146.032ZM470.236 101.351C466.376 101.351 463.253 102.546 460.868 104.934C458.482 107.323 457.043 110.554 456.552 114.629H482.446C482.165 110.344 480.972 107.077 478.867 104.829C476.832 102.51 473.955 101.351 470.236 101.351Z" fill="#29254D"/>
<path d="M512.233 144.978C507.462 144.978 505.076 142.589 505.076 137.812V77.8518C505.076 73.0746 507.462 70.6861 512.233 70.6861H532.654C545.074 70.6861 554.653 73.8825 561.39 80.2755C568.196 86.6685 571.6 95.8364 571.6 107.779C571.6 119.652 568.196 128.82 561.39 135.283C554.653 141.746 545.074 144.978 532.654 144.978H512.233ZM518.549 133.808H531.812C548.934 133.808 557.495 125.132 557.495 107.779C557.495 90.4973 548.934 81.8562 531.812 81.8562H518.549V133.808Z" fill="#29254D"/>
<path d="M609.358 146.032C603.534 146.032 598.517 144.943 594.306 142.765C590.096 140.587 586.833 137.496 584.517 133.492C582.271 129.487 581.149 124.745 581.149 119.266C581.149 113.926 582.236 109.255 584.412 105.25C586.657 101.246 589.71 98.1197 593.569 95.8716C597.499 93.5532 601.955 92.3941 606.937 92.3941C614.235 92.3941 619.989 94.7124 624.2 99.3491C628.48 103.986 630.621 110.308 630.621 118.317C630.621 120.917 628.936 122.216 625.568 122.216H593.78C594.762 131.419 600.025 136.021 609.569 136.021C611.393 136.021 613.428 135.81 615.674 135.389C617.99 134.897 620.165 134.089 622.2 132.965C624.024 131.911 625.568 131.595 626.831 132.016C628.094 132.368 628.972 133.105 629.463 134.229C630.024 135.353 630.094 136.618 629.673 138.023C629.322 139.358 628.34 140.517 626.726 141.501C624.27 143.046 621.428 144.205 618.2 144.978C615.042 145.681 612.095 146.032 609.358 146.032ZM607.464 101.351C603.604 101.351 600.481 102.546 598.095 104.934C595.71 107.323 594.271 110.554 593.78 114.629H619.674C619.393 110.344 618.2 107.077 616.095 104.829C614.06 102.51 611.183 101.351 607.464 101.351Z" fill="#29254D"/>
<path d="M659.882 146.032C656.864 146.032 653.672 145.716 650.303 145.083C646.935 144.451 643.918 143.362 641.251 141.817C639.777 140.974 638.865 139.955 638.514 138.761C638.163 137.496 638.198 136.337 638.62 135.283C639.111 134.159 639.883 133.351 640.935 132.86C642.058 132.368 643.356 132.473 644.83 133.176C647.637 134.51 650.268 135.459 652.724 136.021C655.18 136.513 657.601 136.759 659.987 136.759C663.355 136.759 665.847 136.196 667.461 135.072C669.145 133.878 669.987 132.333 669.987 130.436C669.987 127.485 667.811 125.588 663.461 124.745L652.935 122.743C644.023 121.057 639.567 116.42 639.567 108.833C639.567 105.461 640.479 102.546 642.304 100.087C644.198 97.6279 646.795 95.7311 650.093 94.3963C653.391 93.0615 657.18 92.3941 661.461 92.3941C667.636 92.3941 673.145 93.764 677.987 96.5038C679.32 97.2064 680.092 98.1899 680.302 99.4544C680.583 100.649 680.443 101.808 679.881 102.932C679.39 103.986 678.583 104.759 677.46 105.25C676.337 105.672 675.039 105.531 673.566 104.829C671.39 103.705 669.285 102.897 667.25 102.405C665.285 101.913 663.391 101.667 661.566 101.667C658.128 101.667 655.566 102.265 653.882 103.459C652.268 104.653 651.461 106.234 651.461 108.201C651.461 111.292 653.461 113.189 657.461 113.891L667.987 115.894C672.548 116.737 675.987 118.282 678.302 120.53C680.688 122.778 681.881 125.799 681.881 129.593C681.881 134.721 679.881 138.761 675.881 141.711C671.881 144.592 666.548 146.032 659.882 146.032Z" fill="#29254D"/>
<path d="M698.963 82.91C696.507 82.91 694.577 82.3128 693.173 81.1186C691.84 79.854 691.174 78.1328 691.174 75.955C691.174 73.7069 691.84 71.9857 693.173 70.7914C694.577 69.5971 696.507 69 698.963 69C704.156 69 706.752 71.3183 706.752 75.955C706.752 80.5917 704.156 82.91 698.963 82.91ZM698.963 145.716C696.858 145.716 695.244 145.083 694.121 143.819C692.998 142.554 692.437 140.798 692.437 138.55V99.876C692.437 95.0988 694.612 92.7102 698.963 92.7102C703.384 92.7102 705.594 95.0988 705.594 99.876V138.55C705.594 140.798 705.033 142.554 703.91 143.819C702.787 145.083 701.138 145.716 698.963 145.716Z" fill="#29254D"/>
<path d="M743.265 165C739.475 165 735.791 164.649 732.212 163.946C728.704 163.244 725.511 162.155 722.634 160.679C720.95 159.836 719.932 158.748 719.581 157.413C719.301 156.148 719.441 154.919 720.002 153.724C720.564 152.53 721.406 151.652 722.529 151.09C723.721 150.598 724.985 150.668 726.318 151.301C729.405 152.846 732.318 153.83 735.054 154.251C737.861 154.743 740.247 154.989 742.212 154.989C751.615 154.989 756.317 150.458 756.317 141.395V134.335C754.843 137.215 752.563 139.498 749.475 141.184C746.458 142.87 743.089 143.714 739.37 143.714C734.739 143.714 730.704 142.66 727.265 140.552C723.827 138.374 721.16 135.353 719.265 131.49C717.371 127.626 716.423 123.13 716.423 118.001C716.423 112.873 717.371 108.412 719.265 104.618C721.16 100.754 723.827 97.7684 727.265 95.6608C730.704 93.483 734.739 92.3941 739.37 92.3941C743.089 92.3941 746.458 93.202 749.475 94.8178C752.492 96.4336 754.703 98.6465 756.106 101.457V99.2437C756.106 97.0659 756.668 95.4149 757.79 94.2909C758.983 93.1668 760.597 92.6048 762.632 92.6048C766.983 92.6048 769.158 94.8178 769.158 99.2437V139.814C769.158 148.175 766.948 154.462 762.527 158.677C758.106 162.892 751.685 165 743.265 165ZM742.949 133.703C747.019 133.703 750.247 132.297 752.633 129.487C755.019 126.677 756.212 122.849 756.212 118.001C756.212 113.154 755.019 109.36 752.633 106.62C750.247 103.81 747.019 102.405 742.949 102.405C738.879 102.405 735.651 103.81 733.265 106.62C730.879 109.36 729.686 113.154 729.686 118.001C729.686 122.849 730.879 126.677 733.265 129.487C735.651 132.297 738.879 133.703 742.949 133.703Z" fill="#29254D"/>
<path d="M789.317 145.821C784.967 145.821 782.791 143.573 782.791 139.077V99.2437C782.791 94.8178 784.931 92.6048 789.212 92.6048C793.493 92.6048 795.633 94.8178 795.633 99.2437V101.457C797.387 98.506 799.738 96.258 802.685 94.7124C805.703 93.1669 809.071 92.3941 812.79 92.3941C824.93 92.3941 831 99.4544 831 113.575V139.077C831 143.573 828.825 145.821 824.474 145.821C820.053 145.821 817.843 143.573 817.843 139.077V114.207C817.843 110.203 817.071 107.288 815.527 105.461C814.053 103.634 811.737 102.721 808.58 102.721C804.72 102.721 801.633 103.951 799.317 106.409C797.071 108.798 795.949 111.995 795.949 115.999V139.077C795.949 143.573 793.738 145.821 789.317 145.821Z" fill="#29254D"/>
</svg>
